<svg width="1512" height="688" viewBox="0 0 1512 688" fill="none" xmlns="http://www.w3.org/2000/svg">
<g clip-path="url(#clip0_0_25331)">
<g opacity="0.71">
<path d="M1002.69 598.7C1002.38 598.258 1002.56 597.707 1003.15 597.439C1003.74 597.171 1004.44 597.274 1004.75 597.715C1005.06 598.157 1004.88 598.708 1004.29 598.976C1003.7 599.244 1003 599.141 1002.69 598.7Z" fill="#B8B3FF"/>
<path opacity="0.44" d="M977.366 611.167C969.045 600.312 974.167 585.671 988.741 578.52C1003.31 571.322 1021.87 574.331 1030.13 585.193C1038.45 596.048 1033.33 610.689 1018.75 617.84C1004.18 624.991 985.626 622.029 977.366 611.167Z" fill="url(#paint0_radial_0_25331)" style="mix-blend-mode:color-dodge"/>
<path d="M496.499 580.69C496.193 580.248 496.372 579.697 496.962 579.429C497.552 579.161 498.253 579.264 498.559 579.705C498.865 580.147 498.686 580.698 498.096 580.966C497.505 581.234 496.805 581.131 496.499 580.69Z" fill="#B8B3FF"/>
<path opacity="0.69" d="M471.176 593.157C462.855 582.302 467.977 567.661 482.551 560.51C497.119 553.312 515.678 556.321 523.938 567.183C532.259 578.038 527.137 592.679 512.563 599.83C497.995 607.028 479.435 604.019 471.176 593.157Z" fill="url(#paint1_radial_0_25331)" style="mix-blend-mode:screen"/>
<path d="M1023.33 372.864C1023.26 372.344 1023.77 371.895 1024.38 371.816C1025.06 371.73 1025.6 372.093 1025.66 372.566C1025.73 373.086 1025.23 373.535 1024.61 373.613C1023.93 373.7 1023.39 373.337 1023.33 372.864Z" fill="#B8B3FF"/>
<path opacity="0.69" d="M1032.6 394.941C1016.45 399.282 999.682 392.846 995.155 380.565C990.629 368.284 1000.06 354.809 1016.21 350.468C1032.37 346.127 1049.13 352.564 1053.66 364.844C1058.19 377.125 1048.76 390.6 1032.6 394.941Z" fill="url(#paint2_radial_0_25331)" style="mix-blend-mode:screen"/>
<path d="M87.2824 642.12C87.2159 641.6 87.7205 641.15 88.335 641.072C89.011 640.985 89.557 641.348 89.6175 641.821C89.684 642.341 89.1794 642.79 88.5649 642.869C87.889 642.955 87.3429 642.593 87.2824 642.12Z" fill="#B8B3FF"/>
<path opacity="0.44" d="M58.1686 645.459C56.8305 632.558 69.2886 620.583 85.9717 618.689C102.655 616.796 117.344 625.682 118.676 638.536C120.008 651.391 107.556 663.413 90.8731 665.306C74.1286 667.208 59.5006 658.314 58.1686 645.459Z" fill="url(#paint3_radial_0_25331)" style="mix-blend-mode:color-dodge"/>
<path d="M1378.74 183.794C1378.68 183.274 1379.05 182.793 1379.73 182.707C1380.4 182.62 1381 182.881 1381.07 183.401C1381.13 183.921 1380.76 184.402 1380.08 184.488C1379.41 184.574 1378.81 184.314 1378.74 183.794Z" fill="#B8B3FF"/>
<path opacity="0.44" d="M1350.01 189.104C1347.2 176.439 1358.31 163.723 1374.78 160.654C1391.32 157.626 1407 165.425 1409.86 178.036C1412.67 190.701 1401.55 203.417 1385.08 206.485C1368.54 209.514 1352.87 201.715 1350.01 189.104Z" fill="url(#paint4_radial_0_25331)" style="mix-blend-mode:color-dodge"/>
<path d="M749.398 629.178C749.092 628.737 749.271 628.185 749.861 627.918C750.452 627.65 751.152 627.753 751.458 628.194C751.764 628.635 751.585 629.187 750.995 629.455C750.404 629.723 749.704 629.62 749.398 629.178Z" fill="#B8B3FF"/>
<path opacity="0.44" d="M724.019 641.701C715.76 630.838 720.82 616.205 735.395 609.054C749.969 601.903 768.522 604.864 776.781 615.727C785.041 626.59 779.98 641.223 765.406 648.374C750.838 655.572 732.279 652.563 724.019 641.701Z" fill="url(#paint5_radial_0_25331)" style="mix-blend-mode:color-dodge"/>
<g opacity="0.65">
<path d="M410.363 494.192C410.363 494.192 410.505 493.838 410.751 493.806C410.996 493.775 411.198 493.893 411.223 494.082C411.247 494.272 411.081 494.437 410.835 494.468C410.59 494.5 410.387 494.381 410.363 494.192Z" fill="#B8B3FF"/>
<path opacity="0.69" d="M399.585 495.379C399.097 490.587 403.714 486.152 409.932 485.452C416.151 484.753 421.569 488.049 422.057 492.841C422.545 497.632 417.928 502.068 411.71 502.767C405.491 503.466 400.073 500.17 399.585 495.379Z" fill="url(#paint6_radial_0_25331)" style="mix-blend-mode:screen"/>
</g>
<g opacity="0.65">
<path d="M1130.73 355.137C1130.73 355.137 1130.87 354.782 1131.12 354.751C1131.36 354.719 1131.57 354.838 1131.59 355.027C1131.61 355.216 1131.45 355.381 1131.2 355.413C1130.96 355.444 1130.76 355.326 1130.73 355.137Z" fill="#B8B3FF"/>
<path opacity="0.69" d="M1119.9 356.378C1119.41 351.586 1124.03 347.151 1130.24 346.452C1136.46 345.752 1141.88 349.048 1142.37 353.84C1142.86 358.632 1138.24 363.067 1132.02 363.767C1125.8 364.466 1120.39 361.17 1119.9 356.378Z" fill="url(#paint7_radial_0_25331)" style="mix-blend-mode:screen"/>
</g>
<g opacity="0.65">
<path d="M492.144 334.262C492.144 334.262 492.096 333.883 492.335 333.805C492.568 333.679 492.826 333.742 492.912 333.923C492.997 334.104 492.96 334.301 492.721 334.38C492.487 334.506 492.23 334.443 492.144 334.262Z" fill="#B8B3FF"/>
<path opacity="0.69" d="M482.742 338.876C479.666 334.848 481.532 329.419 486.999 326.749C492.404 324.087 499.289 325.177 502.371 329.252C505.447 333.281 503.58 338.71 498.114 341.38C492.708 344.042 485.824 342.952 482.742 338.876Z" fill="url(#paint8_radial_0_25331)" style="mix-blend-mode:screen"/>
</g>
<g opacity="0.65">
<path d="M438.995 338.657C438.995 338.657 438.946 338.278 439.186 338.2C439.419 338.074 439.677 338.137 439.762 338.318C439.909 338.492 439.811 338.697 439.571 338.775C439.338 338.901 439.08 338.838 438.995 338.657Z" fill="#B8B3FF"/>
<path opacity="0.69" d="M429.598 343.319C426.523 339.291 428.389 333.861 433.856 331.192C439.261 328.53 446.145 329.62 449.227 333.695C452.303 337.723 450.437 343.152 444.97 345.822C439.565 348.484 432.68 347.394 429.598 343.319Z" fill="url(#paint9_radial_0_25331)" style="mix-blend-mode:screen"/>
</g>
<g opacity="0.65">
<path d="M140.22 639C140.22 639 140.362 638.645 140.608 638.614C140.853 638.583 141.055 638.701 141.08 638.89C141.104 639.079 140.938 639.245 140.692 639.276C140.447 639.307 140.244 639.189 140.22 639Z" fill="#B8B3FF"/>
<path opacity="0.69" d="M129.387 640.242C128.899 635.45 133.515 631.015 139.734 630.315C145.952 629.616 151.37 632.912 151.858 637.704C152.346 642.495 147.73 646.931 141.512 647.63C135.293 648.33 129.875 645.034 129.387 640.242Z" fill="url(#paint10_radial_0_25331)" style="mix-blend-mode:screen"/>
</g>
<g opacity="0.65">
<path d="M1303.82 251.82C1303.82 251.82 1303.96 251.465 1304.2 251.387C1304.45 251.355 1304.65 251.473 1304.73 251.655C1304.82 251.836 1304.59 252.009 1304.35 252.088C1304.11 252.119 1303.9 252.001 1303.82 251.82Z" fill="#B8B3FF"/>
<path opacity="0.69" d="M1293.14 253.763C1292.1 249.042 1296.24 244.33 1302.34 243.213C1308.51 242.088 1314.31 244.998 1315.35 249.672C1316.38 254.346 1312.24 259.105 1306.14 260.222C1300.04 261.339 1294.17 258.437 1293.14 253.763Z" fill="url(#paint11_radial_0_25331)" style="mix-blend-mode:screen"/>
</g>
<g opacity="0.65">
<path opacity="0.69" d="M1506.7 116.77C1505.65 112.049 1509.8 107.337 1515.9 106.22C1522 105.103 1527.87 108.005 1528.91 112.679C1529.95 117.4 1525.8 122.111 1519.7 123.228C1513.54 124.353 1507.73 121.443 1506.7 116.77Z" fill="url(#paint12_radial_0_25331)" style="mix-blend-mode:screen"/>
</g>
<g opacity="0.65">
<path d="M1352.67 290.989C1352.67 290.989 1352.81 290.635 1353.05 290.556C1353.3 290.524 1353.5 290.643 1353.59 290.824C1353.61 291.013 1353.45 291.179 1353.21 291.257C1352.96 291.289 1352.76 291.17 1352.67 290.989Z" fill="#B8B3FF"/>
<path opacity="0.69" d="M1341.99 292.932C1340.95 288.211 1345.09 283.499 1351.2 282.382C1357.36 281.257 1363.17 284.167 1364.2 288.841C1365.24 293.562 1361.1 298.274 1355 299.391C1348.83 300.515 1343.03 297.605 1341.99 292.932Z" fill="url(#paint13_radial_0_25331)" style="mix-blend-mode:screen"/>
</g>
<g opacity="0.65">
<path d="M674.639 497.346C674.639 497.346 674.591 496.967 674.83 496.889C675.064 496.763 675.321 496.826 675.407 497.007C675.554 497.18 675.455 497.385 675.216 497.464C674.982 497.59 674.725 497.527 674.639 497.346Z" fill="#B8B3FF"/>
<path opacity="0.69" d="M665.181 502.016C662.105 497.987 663.971 492.558 669.438 489.888C674.843 487.226 681.728 488.316 684.81 492.392C687.886 496.42 686.02 501.849 680.553 504.519C675.147 507.181 668.263 506.091 665.181 502.016Z" fill="url(#paint14_radial_0_25331)" style="mix-blend-mode:screen"/>
</g>
<g opacity="0.65">
<path opacity="0.69" d="M433.24 697.929C430.164 693.901 432.03 688.471 437.497 685.802C442.903 683.14 449.787 684.229 452.869 688.305C455.945 692.333 454.079 697.762 448.612 700.432C443.207 703.094 436.322 702.004 433.24 697.929Z" fill="url(#paint15_radial_0_25331)" style="mix-blend-mode:screen"/>
</g>
<g opacity="0.65">
<path d="M104.257 596.116C104.257 596.116 104.398 595.762 104.644 595.73C104.889 595.699 105.092 595.817 105.116 596.006C105.14 596.196 104.974 596.361 104.729 596.392C104.483 596.424 104.281 596.306 104.257 596.116Z" fill="#B8B3FF"/>
<path opacity="0.69" d="M93.4232 597.358C92.9351 592.566 97.5515 588.131 103.77 587.431C109.989 586.732 115.407 590.028 115.895 594.82C116.383 599.612 111.766 604.047 105.548 604.746C99.3292 605.446 93.9112 602.15 93.4232 597.358Z" fill="url(#paint16_radial_0_25331)" style="mix-blend-mode:screen"/>
</g>
</g>
<path d="M-208.49 1004.99C-208.49 1004.99 4.45805 851.015 13.1934 854.367C21.9227 857.672 -31.9031 905.601 -31.9031 905.601C-31.9031 905.601 128.814 788.584 166.092 751.903C166.092 751.903 144.304 722.681 225.152 673.122C225.152 673.122 67.9455 760.949 -38.8948 776.731C-38.8948 776.731 285.819 490.707 336.005 506.107C336.005 506.107 431.496 429.923 492.68 395.086C492.68 395.086 457.185 532.611 443.596 557.227C429.945 581.85 380.42 632.642 380.42 632.642C380.42 632.642 368.071 740.677 319.232 786.575C319.232 786.575 433.97 775.406 516.384 741.026C598.799 706.645 740.067 662.669 848.029 682.021C848.029 682.021 905.045 666.846 947.785 682.141C947.785 682.141 956.733 612.942 966.894 579.104C977.061 545.315 1031.8 472.758 1038.45 500.839C1038.45 500.839 1252.54 331.385 1293.28 303.681C1334.01 275.977 1380.04 251.538 1380.04 251.538C1380.04 251.538 1450.32 136.91 1481.5 113.168C1512.69 89.4251 1528.55 98.2097 1528.55 98.2097L1717.16 -40.9752C1717.16 -40.9752 1551.17 52.3977 1519.5 71.3959C1487.83 90.3941 1444.33 115.52 1444.33 115.52C1444.33 115.52 1469.74 120.296 1409.59 188.643C1349.45 256.99 1334.38 279.823 1206.93 336.642C1079.49 393.46 901.121 487.743 901.121 487.743C901.121 487.743 915.11 478.456 888.684 547.728C862.258 617 841.909 636.617 841.909 636.617C841.909 636.617 637.686 709.889 418.408 710.88C418.408 710.88 412.317 533.881 592.993 306.798C592.993 306.798 387.257 365.797 232.984 535.146C232.984 535.146 299.528 467.999 321.872 467.399C344.272 466.745 65.3409 683.952 41.8037 697.2C18.2665 710.448 165.56 581.258 165.56 581.258C165.56 581.258 -77.5335 759.806 -176.914 870.034C-176.914 870.034 46.664 755.213 118.151 735.495C118.151 735.495 44.0892 807.833 -208.619 1004.96L-208.49 1004.99Z" fill="#6236FF"/>
<g style="mix-blend-mode:screen">
<path d="M1503.96 90.9746C1511.51 86.548 1519 82.0821 1525.96 77.9233C1536.69 71.5039 1563.23 56.2868 1593.5 39.1008L1526.5 88.5232C1521.16 87.7649 1513.62 87.8649 1503.96 90.9746Z" fill="#4426FF"/>
</g>
<g style="mix-blend-mode:screen">
<path d="M417.924 719.305C476.785 719.033 534.728 713.543 588.117 705.656C554.098 716.544 526.99 727.269 511.81 733.584C454.18 757.634 379.212 770.155 341.899 775.313C377.374 727.472 388.973 650.676 391.012 635.372C396.417 629.778 411.5 613.911 425.958 597.067C406.623 665.624 407.626 708.126 407.705 711.673L407.941 719.38L417.924 719.305Z" fill="#4426FF"/>
</g>
<g style="mix-blend-mode:screen">
<path d="M1243.01 329.624C1178.98 378.33 1073 461.911 1040.5 487.6C1037.19 486.102 1033.86 485.998 1032.31 486.053C1005.12 486.887 964.03 552.316 956.41 577.706C948.612 603.647 941.616 649.047 938.594 670.34C901.135 662.155 859.927 670.55 848.342 673.234C820.196 668.52 790.322 667.871 760.301 669.981C812.855 656.049 845.352 644.491 846.188 644.192L848.696 643.294L850.475 641.577C851.362 640.695 872.666 619.754 899.407 549.529C912.499 515.172 916.489 498.513 915.947 489.884C953.523 470.178 1102.61 392.617 1212.1 343.815C1223.2 338.838 1233.53 334.152 1243.07 329.616L1243.01 329.624Z" fill="#4426FF"/>
</g>
<g style="mix-blend-mode:screen">
<path d="M508.642 375.838L486.697 388.353C432.439 419.228 353.318 480.823 333.179 496.712C326.822 496.324 316.921 498.023 298.971 506.615C336.807 473.323 335.274 469.145 333.752 465.063C332.811 462.588 330.634 460.703 327.822 459.717C422.71 384.187 519.724 342.364 566.94 324.789C536.444 365.169 511.775 403.745 491.841 439.794C498.259 416.24 502.89 398.249 503.441 396.208L508.709 375.877L508.642 375.838Z" fill="#4426FF"/>
</g>
<path d="M389.167 716.639L389.707 732.093L409.618 731.998C441.079 731.866 473.844 730.222 507.609 727.104C504.7 728.294 502.032 729.404 499.536 730.396C452.635 749.949 393.875 761.743 353.66 768.137C381.121 721.609 391.374 660.173 393.837 642.316C395.105 641 396.644 639.361 398.349 637.557C388.482 684.429 388.996 712.864 389.167 716.639Z" fill="#DEDCFF"/>
<path d="M829.104 656.134C847.668 650.395 858.058 646.663 858.236 646.592L863.314 644.789L866.817 641.409C869.211 639.132 890.917 616.939 917.849 546.256C928.595 517.967 933.883 500.229 934.748 488.921C976.37 467.159 1087.31 409.713 1183.91 364.674C1130.34 406.275 1072.13 452.17 1046.15 472.699C1043.93 472.407 1041.99 472.367 1040.69 472.437C1001.56 473.646 959.613 551.968 953.88 571.109C947.089 593.701 940.99 629.998 937.347 654.735C903.745 650.335 870.227 656.352 856.743 659.327C847.881 657.913 838.692 656.878 829.11 656.181L829.104 656.134Z" fill="#DEDCFF"/>
<path d="M489.197 373.231C442.799 399.64 379.458 447.393 347.758 472.018C354.687 463.202 354.616 458.741 352.795 453.784C352.422 452.822 351.994 451.916 351.443 451.025C424.902 393.999 498.586 357.275 548.782 336.148C541.901 345.823 535.216 355.569 528.721 365.34L533.148 348.192L489.197 373.231Z" fill="#DEDCFF"/>
<path d="M161.82 522.237C161.82 522.237 271.146 415.542 337.63 375.269C337.63 375.269 320.489 427.782 444.846 371.215L412.207 392.403C412.207 392.403 334.09 409.605 334.401 386.159C334.401 386.159 278.262 414.536 161.814 522.189L161.82 522.237Z" fill="#6236FF"/>
<path d="M106.007 654.72C106.007 654.72 0.0108356 749.358 28.4513 760.282L13.1137 768.3C13.1137 768.3 26.5169 747.601 28.1131 732.738C28.1131 732.738 59.1384 701.375 57.8009 694.337L87.6682 667.591L106.069 654.712L106.007 654.72Z" fill="#6236FF"/>
<path d="M458.896 515.715C458.896 515.715 462.17 445.127 456.865 434.896C451.565 424.712 420.259 442.655 420.259 442.655L437.841 427.285C437.841 427.285 452.512 433.579 461.374 428.648C461.374 428.648 458.793 493.428 468.535 497.325L462.346 513.88L458.896 515.715Z" fill="#6236FF"/>
<path d="M872.382 586.773C872.382 586.773 804.195 611.788 777.935 656.48L750.697 668.134C750.697 668.134 836.881 598.283 841.935 592.878C841.935 592.878 870.827 593.172 880.972 567.507C891.116 541.842 882.213 579.652 882.213 579.652L872.382 586.773Z" fill="#6236FF"/>
<path d="M1193.26 352.28C1193.26 352.28 1178.64 349.344 1162.5 356.936C1146.36 364.527 1085.3 375.895 1085.3 375.895L926.95 465.07C926.95 465.07 1095.2 375.205 1106.84 373.428C1118.48 371.65 1145.62 368.996 1145.62 368.996L1193.2 352.288L1193.26 352.28Z" fill="#6236FF"/>
<path d="M1424.56 170.915C1424.56 170.915 1249.15 326.386 1162.56 356.928L1232.37 325.025C1232.37 325.025 1356.73 232.844 1384.25 217.596C1411.78 202.348 1424.56 170.915 1424.56 170.915Z" fill="#6236FF"/>
<path d="M593.068 696.516C593.068 696.516 590.765 696.57 586.771 696.601C565.429 696.735 496.003 696.437 477.941 687.549C456.485 677.029 451.183 554.045 451.183 554.045L434.726 581.142C434.726 581.142 458.953 601.113 461.024 683.705C461.024 683.705 468.707 681.761 479.177 699.166C479.177 699.166 517.282 691.408 557.23 701.485L593.068 696.516Z" fill="#6236FF"/>
<path d="M1436.06 167.042C1412.24 201.568 1424.57 279.821 1424.57 279.821L1352.18 360.837C1352.18 360.837 1330.88 366.204 1278.77 385.078C1278.77 385.078 1286.25 381.573 1344.3 361.748C1344.3 361.748 1419.44 302.729 1416.61 257.673C1413.78 212.617 1409.47 205.72 1409.47 205.72L1420.69 178.716L1436.06 167.042Z" fill="#6236FF"/>
<path d="M1352.24 360.829L1349.68 376.968L1348.05 361.316L1352.24 360.829Z" fill="#6236FF"/>
<g opacity="0.5">
<path opacity="0.58" d="M279.669 799.213C15.6816 1053.23 -275.052 1212.55 -369.702 1155.07C-464.352 1097.59 -327.078 845.068 -63.0902 591.053C200.897 337.038 491.63 177.716 586.281 235.198C680.931 292.68 543.656 545.198 279.669 799.213Z" fill="url(#paint17_radial_0_25331)" style="mix-blend-mode:screen"/>
<path opacity="0.58" d="M645.405 540.228C562.355 736.031 408.498 876.714 301.756 854.454C195.014 832.194 175.807 655.42 258.857 459.618C341.907 263.815 495.764 123.132 602.506 145.392C709.248 167.652 728.454 344.426 645.405 540.228Z" fill="url(#paint18_radial_0_25331)" style="mix-blend-mode:screen"/>
<path opacity="0.58" d="M709.102 829.33C455.791 890.512 228.711 872.556 201.905 789.224C175.099 705.891 358.717 588.739 612.029 527.557C865.34 466.375 1092.42 484.332 1119.23 567.664C1146.03 650.996 962.413 768.148 709.102 829.33Z" fill="url(#paint19_radial_0_25331)" style="mix-blend-mode:screen"/>
<path opacity="0.58" d="M1122.78 618.979C950.245 779.395 741.922 866.196 657.48 812.856C573.038 759.515 644.454 586.231 816.992 425.816C989.53 265.4 1197.85 178.599 1282.3 231.94C1366.74 285.28 1295.32 458.564 1122.78 618.979Z" fill="url(#paint20_radial_0_25331)" style="mix-blend-mode:screen"/>
<path opacity="0.58" d="M1402.36 430.952C1105.36 633.147 806.306 744.484 734.414 679.63C662.522 614.775 845.014 398.288 1142.02 196.093C1439.03 -6.10302 1738.08 -117.44 1809.97 -52.5852C1881.86 12.2694 1699.37 228.756 1402.36 430.952Z" fill="url(#paint21_radial_0_25331)" style="mix-blend-mode:screen"/>
</g>
<rect x="-258" y="33" width="2032" height="655" fill="url(#paint22_linear_0_25331)"/>
</g>
<mask id="mask0_0_25331" style="mask-type:luminance" maskUnits="userSpaceOnUse" x="0" y="0" width="1512" height="822">
<path d="M1512 0H0V821.545H1512V0Z" fill="white"/>
</mask>
<g mask="url(#mask0_0_25331)">
<g filter="url(#filter0_f_0_25331)">
<path d="M1200 317.667C1170.95 317.667 905.473 257.186 727.643 257.186C549.813 257.186 286.631 347 258 347C258 316.952 549.813 197 727.643 197C905.473 197 1200 287.619 1200 317.667Z" fill="white" fill-opacity="0.5"/>
</g>
<g filter="url(#filter1_f_0_25331)">
<path d="M1723 901.902C1723 1289.84 1290.28 1604.32 756.5 1604.32C222.717 1604.32 -210 1289.84 -210 901.902C-210 513.969 222.717 199.487 756.5 199.487C1290.28 199.487 1723 513.969 1723 901.902Z" fill="url(#paint23_linear_0_25331)"/>
</g>
</g>
<defs>
<filter id="filter0_f_0_25331" x="158" y="97" width="1142" height="350" filterUnits="userSpaceOnUse" color-interpolation-filters="sRGB">
<feFlood flood-opacity="0" result="BackgroundImageFix"/>
<feBlend mode="normal" in="SourceGraphic" in2="BackgroundImageFix" result="shape"/>
<feGaussianBlur stdDeviation="50" result="effect1_foregroundBlur_0_25331"/>
</filter>
<filter id="filter1_f_0_25331" x="-410" y="-0.512695" width="2333" height="1804.83" filterUnits="userSpaceOnUse" color-interpolation-filters="sRGB">
<feFlood flood-opacity="0" result="BackgroundImageFix"/>
<feBlend mode="normal" in="SourceGraphic" in2="BackgroundImageFix" result="shape"/>
<feGaussianBlur stdDeviation="100" result="effect1_foregroundBlur_0_25331"/>
</filter>
<radialGradient id="paint0_radial_0_25331" cx="0" cy="0" r="1" gradientTransform="matrix(-26.4063 12.9993 -15.0203 -19.6787 1003.86 598.247)" gradientUnits="userSpaceOnUse">
<stop stop-color="#D400FF"/>
<stop offset="0.12" stop-color="#A500C6"/>
<stop offset="0.24" stop-color="#790092"/>
<stop offset="0.37" stop-color="#540065"/>
<stop offset="0.5" stop-color="#350040"/>
<stop offset="0.62" stop-color="#1E0024"/>
<stop offset="0.75" stop-color="#0D0010"/>
<stop offset="0.88" stop-color="#030004"/>
<stop offset="1"/>
</radialGradient>
<radialGradient id="paint1_radial_0_25331" cx="0" cy="0" r="1" gradientTransform="matrix(-26.4062 12.9993 -15.0203 -19.6787 497.626 580.25)" gradientUnits="userSpaceOnUse">
<stop stop-color="#5600FF"/>
<stop offset="0.12" stop-color="#4200C6"/>
<stop offset="0.24" stop-color="#310092"/>
<stop offset="0.37" stop-color="#220065"/>
<stop offset="0.5" stop-color="#150040"/>
<stop offset="0.62" stop-color="#0C0024"/>
<stop offset="0.75" stop-color="#050010"/>
<stop offset="0.88" stop-color="#010004"/>
<stop offset="1"/>
</radialGradient>
<radialGradient id="paint2_radial_0_25331" cx="0" cy="0" r="1" gradientTransform="matrix(-30.2809 3.45667 -2.44268 -23.3299 1024.07 372.63)" gradientUnits="userSpaceOnUse">
<stop stop-color="#5600FF"/>
<stop offset="0.12" stop-color="#4200C6"/>
<stop offset="0.24" stop-color="#310092"/>
<stop offset="0.37" stop-color="#220065"/>
<stop offset="0.5" stop-color="#150040"/>
<stop offset="0.62" stop-color="#0C0024"/>
<stop offset="0.75" stop-color="#050010"/>
<stop offset="0.88" stop-color="#010004"/>
<stop offset="1"/>
</radialGradient>
<radialGradient id="paint3_radial_0_25331" cx="0" cy="0" r="1" gradientTransform="matrix(-30.2809 3.45667 -2.44268 -23.3299 88.3209 641.719)" gradientUnits="userSpaceOnUse">
<stop stop-color="#D400FF"/>
<stop offset="0.12" stop-color="#A500C6"/>
<stop offset="0.24" stop-color="#790092"/>
<stop offset="0.37" stop-color="#540065"/>
<stop offset="0.5" stop-color="#350040"/>
<stop offset="0.62" stop-color="#1E0024"/>
<stop offset="0.75" stop-color="#0D0010"/>
<stop offset="0.88" stop-color="#030004"/>
<stop offset="1"/>
</radialGradient>
<radialGradient id="paint4_radial_0_25331" cx="0" cy="0" r="1" gradientTransform="matrix(-29.9439 5.51688 -5.12481 -22.9303 1380.49 183.495)" gradientUnits="userSpaceOnUse">
<stop stop-color="#D400FF"/>
<stop offset="0.12" stop-color="#A500C6"/>
<stop offset="0.24" stop-color="#790092"/>
<stop offset="0.37" stop-color="#540065"/>
<stop offset="0.5" stop-color="#350040"/>
<stop offset="0.62" stop-color="#1E0024"/>
<stop offset="0.75" stop-color="#0D0010"/>
<stop offset="0.88" stop-color="#030004"/>
<stop offset="1"/>
</radialGradient>
<radialGradient id="paint5_radial_0_25331" cx="0" cy="0" r="1" gradientTransform="matrix(-26.4062 12.9993 -15.0203 -19.6787 750.489 628.773)" gradientUnits="userSpaceOnUse">
<stop stop-color="#D400FF"/>
<stop offset="0.12" stop-color="#A500C6"/>
<stop offset="0.24" stop-color="#790092"/>
<stop offset="0.37" stop-color="#540065"/>
<stop offset="0.5" stop-color="#350040"/>
<stop offset="0.62" stop-color="#1E0024"/>
<stop offset="0.75" stop-color="#0D0010"/>
<stop offset="0.88" stop-color="#030004"/>
<stop offset="1"/>
</radialGradient>
<radialGradient id="paint6_radial_0_25331" cx="0" cy="0" r="1" gradientTransform="matrix(-11.263 1.28572 -0.90856 -8.6776 410.656 493.837)" gradientUnits="userSpaceOnUse">
<stop stop-color="#5600FF"/>
<stop offset="0.12" stop-color="#4200C6"/>
<stop offset="0.24" stop-color="#310092"/>
<stop offset="0.37" stop-color="#220065"/>
<stop offset="0.5" stop-color="#150040"/>
<stop offset="0.62" stop-color="#0C0024"/>
<stop offset="0.75" stop-color="#050010"/>
<stop offset="0.88" stop-color="#010004"/>
<stop offset="1"/>
</radialGradient>
<radialGradient id="paint7_radial_0_25331" cx="0" cy="0" r="1" gradientTransform="matrix(-11.2631 1.28572 -0.908559 -8.6776 1131.03 354.837)" gradientUnits="userSpaceOnUse">
<stop stop-color="#5600FF"/>
<stop offset="0.12" stop-color="#4200C6"/>
<stop offset="0.24" stop-color="#310092"/>
<stop offset="0.37" stop-color="#220065"/>
<stop offset="0.5" stop-color="#150040"/>
<stop offset="0.62" stop-color="#0C0024"/>
<stop offset="0.75" stop-color="#050010"/>
<stop offset="0.88" stop-color="#010004"/>
<stop offset="1"/>
</radialGradient>
<radialGradient id="paint8_radial_0_25331" cx="0" cy="0" r="1" gradientTransform="matrix(-9.82182 4.83512 -5.58681 -7.31952 492.669 334.137)" gradientUnits="userSpaceOnUse">
<stop stop-color="#5600FF"/>
<stop offset="0.12" stop-color="#4200C6"/>
<stop offset="0.24" stop-color="#310092"/>
<stop offset="0.37" stop-color="#220065"/>
<stop offset="0.5" stop-color="#150040"/>
<stop offset="0.62" stop-color="#0C0024"/>
<stop offset="0.75" stop-color="#050010"/>
<stop offset="0.88" stop-color="#010004"/>
<stop offset="1"/>
</radialGradient>
<radialGradient id="paint9_radial_0_25331" cx="0" cy="0" r="1" gradientTransform="matrix(-9.82186 4.83512 -5.58683 -7.31952 439.498 338.576)" gradientUnits="userSpaceOnUse">
<stop stop-color="#5600FF"/>
<stop offset="0.12" stop-color="#4200C6"/>
<stop offset="0.24" stop-color="#310092"/>
<stop offset="0.37" stop-color="#220065"/>
<stop offset="0.5" stop-color="#150040"/>
<stop offset="0.62" stop-color="#0C0024"/>
<stop offset="0.75" stop-color="#050010"/>
<stop offset="0.88" stop-color="#010004"/>
<stop offset="1"/>
</radialGradient>
<radialGradient id="paint10_radial_0_25331" cx="0" cy="0" r="1" gradientTransform="matrix(-11.263 1.28571 -0.90856 -8.6776 140.503 638.641)" gradientUnits="userSpaceOnUse">
<stop stop-color="#5600FF"/>
<stop offset="0.12" stop-color="#4200C6"/>
<stop offset="0.24" stop-color="#310092"/>
<stop offset="0.37" stop-color="#220065"/>
<stop offset="0.5" stop-color="#150040"/>
<stop offset="0.62" stop-color="#0C0024"/>
<stop offset="0.75" stop-color="#050010"/>
<stop offset="0.88" stop-color="#010004"/>
<stop offset="1"/>
</radialGradient>
<radialGradient id="paint11_radial_0_25331" cx="0" cy="0" r="1" gradientTransform="matrix(-11.1376 2.052 -1.90618 -8.52895 1304.85 251.633)" gradientUnits="userSpaceOnUse">
<stop stop-color="#5600FF"/>
<stop offset="0.12" stop-color="#4200C6"/>
<stop offset="0.24" stop-color="#310092"/>
<stop offset="0.37" stop-color="#220065"/>
<stop offset="0.5" stop-color="#150040"/>
<stop offset="0.62" stop-color="#0C0024"/>
<stop offset="0.75" stop-color="#050010"/>
<stop offset="0.88" stop-color="#010004"/>
<stop offset="1"/>
</radialGradient>
<radialGradient id="paint12_radial_0_25331" cx="0" cy="0" r="1" gradientTransform="matrix(-11.1376 2.052 -1.90618 -8.52895 1518.38 114.611)" gradientUnits="userSpaceOnUse">
<stop stop-color="#5600FF"/>
<stop offset="0.12" stop-color="#4200C6"/>
<stop offset="0.24" stop-color="#310092"/>
<stop offset="0.37" stop-color="#220065"/>
<stop offset="0.5" stop-color="#150040"/>
<stop offset="0.62" stop-color="#0C0024"/>
<stop offset="0.75" stop-color="#050010"/>
<stop offset="0.88" stop-color="#010004"/>
<stop offset="1"/>
</radialGradient>
<radialGradient id="paint13_radial_0_25331" cx="0" cy="0" r="1" gradientTransform="matrix(-11.1376 2.052 -1.90618 -8.52895 1353.66 290.827)" gradientUnits="userSpaceOnUse">
<stop stop-color="#5600FF"/>
<stop offset="0.12" stop-color="#4200C6"/>
<stop offset="0.24" stop-color="#310092"/>
<stop offset="0.37" stop-color="#220065"/>
<stop offset="0.5" stop-color="#150040"/>
<stop offset="0.62" stop-color="#0C0024"/>
<stop offset="0.75" stop-color="#050010"/>
<stop offset="0.88" stop-color="#010004"/>
<stop offset="1"/>
</radialGradient>
<radialGradient id="paint14_radial_0_25331" cx="0" cy="0" r="1" gradientTransform="matrix(-9.82186 4.83512 -5.58683 -7.31953 675.113 497.223)" gradientUnits="userSpaceOnUse">
<stop stop-color="#5600FF"/>
<stop offset="0.12" stop-color="#4200C6"/>
<stop offset="0.24" stop-color="#310092"/>
<stop offset="0.37" stop-color="#220065"/>
<stop offset="0.5" stop-color="#150040"/>
<stop offset="0.62" stop-color="#0C0024"/>
<stop offset="0.75" stop-color="#050010"/>
<stop offset="0.88" stop-color="#010004"/>
<stop offset="1"/>
</radialGradient>
<radialGradient id="paint15_radial_0_25331" cx="0" cy="0" r="1" gradientTransform="matrix(-9.82183 4.83511 -5.58682 -7.31951 443.13 693.139)" gradientUnits="userSpaceOnUse">
<stop stop-color="#5600FF"/>
<stop offset="0.12" stop-color="#4200C6"/>
<stop offset="0.24" stop-color="#310092"/>
<stop offset="0.37" stop-color="#220065"/>
<stop offset="0.5" stop-color="#150040"/>
<stop offset="0.62" stop-color="#0C0024"/>
<stop offset="0.75" stop-color="#050010"/>
<stop offset="0.88" stop-color="#010004"/>
<stop offset="1"/>
</radialGradient>
<radialGradient id="paint16_radial_0_25331" cx="0" cy="0" r="1" gradientTransform="matrix(-11.263 1.28571 -0.90856 -8.6776 104.499 595.773)" gradientUnits="userSpaceOnUse">
<stop stop-color="#5600FF"/>
<stop offset="0.12" stop-color="#4200C6"/>
<stop offset="0.24" stop-color="#310092"/>
<stop offset="0.37" stop-color="#220065"/>
<stop offset="0.5" stop-color="#150040"/>
<stop offset="0.62" stop-color="#0C0024"/>
<stop offset="0.75" stop-color="#050010"/>
<stop offset="0.88" stop-color="#010004"/>
<stop offset="1"/>
</radialGradient>
<radialGradient id="paint17_radial_0_25331" cx="0" cy="0" r="1" gradientTransform="matrix(172.249 104.608 478.388 -460.317 113.22 695.506)" gradientUnits="userSpaceOnUse">
<stop stop-color="#5A00FF"/>
<stop offset="0.05" stop-color="#5400EE"/>
<stop offset="0.3" stop-color="#36009A"/>
<stop offset="0.53" stop-color="#1F0058"/>
<stop offset="0.72" stop-color="#0E0028"/>
<stop offset="0.86" stop-color="#03000B"/>
<stop offset="0.94"/>
</radialGradient>
<radialGradient id="paint18_radial_0_25331" cx="0" cy="0" r="1" gradientTransform="matrix(-192.306 -40.1035 -150.377 354.537 476.935 505.813)" gradientUnits="userSpaceOnUse">
<stop stop-color="#5A00FF"/>
<stop offset="0.08" stop-color="#4E00DE"/>
<stop offset="0.26" stop-color="#36009B"/>
<stop offset="0.44" stop-color="#230064"/>
<stop offset="0.59" stop-color="#140038"/>
<stop offset="0.74" stop-color="#090019"/>
<stop offset="0.86" stop-color="#020006"/>
<stop offset="0.94"/>
</radialGradient>
<radialGradient id="paint19_radial_0_25331" cx="0" cy="0" r="1" gradientTransform="matrix(-48.2937 -150.131 -458.668 110.782 670.388 708.597)" gradientUnits="userSpaceOnUse">
<stop stop-color="#5A00FF"/>
<stop offset="0.65" stop-color="#1C004F"/>
<stop offset="0.94"/>
</radialGradient>
<radialGradient id="paint20_radial_0_25331" cx="0" cy="0" r="1" gradientTransform="matrix(-152.101 -96.0801 -312.354 290.409 995.08 538.474)" gradientUnits="userSpaceOnUse">
<stop stop-color="#5A00FF"/>
<stop offset="0.08" stop-color="#4E00DE"/>
<stop offset="0.26" stop-color="#36009B"/>
<stop offset="0.44" stop-color="#230064"/>
<stop offset="0.59" stop-color="#140038"/>
<stop offset="0.74" stop-color="#090019"/>
<stop offset="0.86" stop-color="#020006"/>
<stop offset="0.94"/>
</radialGradient>
<radialGradient id="paint21_radial_0_25331" cx="0" cy="0" r="1" gradientTransform="matrix(-129.989 -117.265 -536.959 365.549 1272.63 323.665)" gradientUnits="userSpaceOnUse">
<stop stop-color="#5A00FF"/>
<stop offset="0.08" stop-color="#4E00DE"/>
<stop offset="0.26" stop-color="#36009B"/>
<stop offset="0.44" stop-color="#230064"/>
<stop offset="0.59" stop-color="#140038"/>
<stop offset="0.74" stop-color="#090019"/>
<stop offset="0.86" stop-color="#020006"/>
<stop offset="0.94"/>
</radialGradient>
<linearGradient id="paint22_linear_0_25331" x1="758" y1="33" x2="758" y2="688" gradientUnits="userSpaceOnUse">
<stop stop-opacity="0"/>
<stop offset="0.601472" stop-opacity="0.9342"/>
<stop offset="0.74912" stop-opacity="0.954816"/>
<stop offset="0.835437" stop-opacity="0.973579"/>
<stop offset="1"/>
</linearGradient>
<linearGradient id="paint23_linear_0_25331" x1="756.5" y1="199.487" x2="756.5" y2="483.946" gradientUnits="userSpaceOnUse">
<stop stop-color="#3300C2"/>
<stop offset="0.286458" stop-color="#4011C7"/>
<stop offset="0.9375" stop-color="#1F1049" stop-opacity="0"/>
</linearGradient>
<clipPath id="clip0_0_25331">
<rect width="1512" height="1060" fill="white" transform="translate(0 -372)"/>
</clipPath>
</defs>
</svg>
