<svg width="44" height="44" viewBox="0 0 44 44" fill="none" xmlns="http://www.w3.org/2000/svg">
<path opacity="0.8" d="M36.3066 9.16308C35.8743 8.73086 35.4421 8.29864 35.0099 7.86642C33.7132 6.48331 32.3301 5.10021 30.6012 4.23577C28.613 3.19844 26.4519 3.45777 24.2908 3.45777C21.006 3.45777 12.7938 3.45777 7.95291 3.45777L11.2378 7.86642C17.2024 7.86642 26.5384 7.86642 30.8606 7.86642C32.6759 7.86642 34.2319 8.21219 35.7014 9.16308C35.9608 9.24952 36.2201 9.24952 36.3066 9.16308Z" fill="white"/>
<path opacity="0.9" d="M39.9372 16.2517C39.505 15.8195 39.0727 15.3873 38.6405 14.955C37.3439 13.5719 35.9608 12.1888 34.2319 11.3244C32.2437 10.2871 30.0826 10.5464 27.9215 10.5464C25.0688 10.5464 18.2397 10.5464 13.3989 10.5464L16.6837 14.955C22.5619 14.955 30.6012 14.955 34.5776 14.955C36.393 14.955 37.949 15.3008 39.4185 16.2517C39.5914 16.3381 39.7643 16.3381 39.9372 16.2517Z" fill="white"/>
<path d="M44 23.167C43.5678 22.7348 43.1356 22.3025 42.7034 21.8703C41.4067 20.4872 40.0236 19.1041 38.2947 18.2397C36.3065 17.2023 34.1454 17.4617 31.9843 17.4617C29.3045 17.4617 23.4264 17.4617 18.6719 17.4617L21.9568 21.8703C27.6621 21.8703 34.9234 21.8703 38.5541 21.8703C40.3694 21.8703 41.9254 22.2161 43.3949 23.167C43.6542 23.2534 43.8271 23.3399 44 23.167Z" fill="white"/>
<path opacity="0.8" d="M7.60715 34.8368C8.03937 35.269 8.47159 35.7012 8.90381 36.1335C10.2005 37.5166 11.5836 38.8997 13.3124 39.7641C15.3007 40.8014 17.4618 40.5421 19.6229 40.5421H35.9608L32.6759 36.1335C26.7113 36.1335 17.3753 36.1335 13.0531 36.1335C11.2378 36.1335 9.6818 35.7877 8.21225 34.8368C7.95292 34.7504 7.78004 34.7504 7.60715 34.8368Z" fill="white"/>
<path opacity="0.9" d="M3.97644 27.7487C4.40866 28.1809 4.84088 28.6131 5.2731 29.0453C6.56976 30.4284 7.95286 31.8116 9.68174 32.676C11.67 33.7133 13.8311 33.454 15.9922 33.454H30.5148L27.2299 29.0453C21.3517 29.0453 13.3124 29.0453 9.33597 29.0453C7.52064 29.0453 5.96465 28.6996 4.4951 27.7487C4.32221 27.6622 4.14933 27.6622 3.97644 27.7487Z" fill="white"/>
<path d="M0 20.7465C0.43222 21.1787 0.86444 21.6109 1.29666 22.0431C2.59332 23.4262 3.97643 24.8094 5.70531 25.6738C7.69352 26.7111 9.85461 26.4518 12.0157 26.4518H25.3281L22.0432 22.0431C16.3379 22.0431 9.07662 22.0431 5.44598 22.0431C3.63065 22.0431 2.07465 21.6974 0.605106 20.7465C0.345773 20.66 0.172888 20.66 0 20.7465Z" fill="white"/>
</svg>
