<svg width="1512" height="1060" viewBox="0 0 1512 1060" fill="none" xmlns="http://www.w3.org/2000/svg">
<g clip-path="url(#clip0_0_24279)">
<g opacity="0.71">
<path d="M587.955 870.254C588.084 869.757 587.828 869.261 587.331 869.132C586.834 869.003 586.338 869.259 586.209 869.756C586.081 870.253 586.336 870.749 586.834 870.878C587.331 871.006 587.827 870.751 587.955 870.254Z" fill="#B8B3FF"/>
<path opacity="0.44" d="M609.497 876.726C613.246 864.327 606.19 851.244 593.797 847.543C581.398 843.794 568.315 850.85 564.614 863.243C560.865 875.642 567.921 888.725 580.314 892.426C592.707 896.128 605.796 889.119 609.497 876.726Z" fill="url(#paint0_radial_0_24279)" style="mix-blend-mode:color-dodge"/>
<path d="M959.054 740.022C959.182 739.525 958.927 739.029 958.43 738.901C957.932 738.772 957.437 739.028 957.308 739.525C957.179 740.022 957.435 740.518 957.932 740.646C958.429 740.775 958.925 740.519 959.054 740.022Z" fill="#B8B3FF"/>
<path opacity="0.69" d="M980.596 746.494C984.345 734.096 977.288 721.013 964.895 717.311C952.497 713.562 939.414 720.619 935.712 733.011C931.963 745.41 939.02 758.493 951.412 762.195C963.811 765.944 976.894 758.887 980.596 746.494Z" fill="url(#paint1_radial_0_24279)" style="mix-blend-mode:screen"/>
<path d="M1439.93 889.354C1440.06 888.857 1439.8 888.361 1439.3 888.232C1438.81 888.103 1438.31 888.359 1438.18 888.856C1438.05 889.353 1438.31 889.849 1438.81 889.978C1439.3 890.106 1439.8 889.851 1439.93 889.354Z" fill="#B8B3FF"/>
<path opacity="0.69" d="M1461.52 895.82C1465.22 883.427 1458.21 870.338 1445.82 866.637C1433.42 862.888 1420.33 869.944 1416.63 882.337C1412.88 894.736 1419.94 907.819 1432.33 911.52C1444.73 915.269 1457.82 908.213 1461.52 895.82Z" fill="url(#paint2_radial_0_24279)" style="mix-blend-mode:screen"/>
<path d="M522.365 655.448C522.298 654.928 521.824 654.604 521.352 654.665C520.831 654.731 520.508 655.205 520.568 655.678C520.635 656.198 521.109 656.522 521.581 656.462C522.102 656.395 522.425 655.921 522.365 655.448Z" fill="#B8B3FF"/>
<path opacity="0.69" d="M520.408 678.962C533.347 679.581 544.338 669.594 544.957 656.655C545.577 643.716 535.59 632.725 522.651 632.106C509.712 631.486 498.72 641.473 498.101 654.412C497.482 667.351 507.469 678.343 520.408 678.962Z" fill="url(#paint3_radial_0_24279)" style="mix-blend-mode:screen"/>
<path d="M1275.98 708.565C1275.92 708.045 1275.44 707.721 1274.97 707.781C1274.45 707.848 1274.12 708.322 1274.19 708.795C1274.25 709.315 1274.73 709.639 1275.2 709.578C1275.72 709.512 1276.04 709.038 1275.98 708.565Z" fill="#B8B3FF"/>
<path opacity="0.44" d="M1298.3 705.326C1296.42 692.494 1284.52 683.635 1271.74 685.51C1258.95 687.386 1250.04 699.291 1251.92 712.076C1253.8 724.86 1265.7 733.767 1278.49 731.891C1291.32 730.009 1300.18 718.11 1298.3 705.326Z" fill="url(#paint4_radial_0_24279)" style="mix-blend-mode:color-dodge"/>
<path d="M216.879 550.919C216.812 550.399 216.427 550.016 215.907 550.082C215.386 550.149 215.003 550.534 215.07 551.055C215.136 551.575 215.522 551.958 216.042 551.891C216.562 551.825 216.945 551.439 216.879 550.919Z" fill="#B8B3FF"/>
<path opacity="0.44" d="M239.357 549.678C238.616 536.748 227.548 526.87 214.659 527.557C201.73 528.298 191.851 539.366 192.538 552.255C193.279 565.184 204.347 575.063 217.236 574.375C230.166 573.635 240.044 562.567 239.357 549.678Z" fill="url(#paint5_radial_0_24279)" style="mix-blend-mode:color-dodge"/>
<path d="M782.443 843.453C782.572 842.956 782.316 842.46 781.819 842.331C781.322 842.203 780.826 842.458 780.697 842.955C780.569 843.452 780.824 843.948 781.321 844.077C781.819 844.206 782.315 843.95 782.443 843.453Z" fill="#B8B3FF"/>
<path opacity="0.44" d="M804.039 849.967C807.74 837.574 800.731 824.485 788.338 820.783C775.946 817.082 762.857 824.091 759.155 836.484C755.454 848.876 762.463 861.965 774.855 865.667C787.254 869.416 800.337 862.359 804.039 849.967Z" fill="url(#paint6_radial_0_24279)" style="mix-blend-mode:color-dodge"/>
<g opacity="0.65">
<path d="M1148.51 822.291C1148.51 822.291 1148.46 821.913 1148.27 821.89C1148.06 821.819 1147.89 821.938 1147.86 822.133C1147.79 822.335 1147.91 822.512 1148.11 822.535C1148.31 822.605 1148.49 822.486 1148.51 822.291Z" fill="#B8B3FF"/>
<path opacity="0.69" d="M1156.5 824.681C1157.89 820.082 1155.29 815.223 1150.65 813.847C1146.05 812.465 1141.19 815.057 1139.82 819.702C1138.43 824.301 1141.02 829.16 1145.67 830.536C1150.27 831.918 1155.13 829.326 1156.5 824.681Z" fill="url(#paint7_radial_0_24279)" style="mix-blend-mode:screen"/>
</g>
<g opacity="0.65">
<path d="M1003.62 636.806C1003.62 636.806 1003.44 636.493 1003.25 636.517C1003.06 636.541 1002.93 636.701 1002.96 636.891C1002.98 637.08 1003.14 637.203 1003.33 637.179C1003.52 637.155 1003.64 636.995 1003.62 636.806Z" fill="#B8B3FF"/>
<path opacity="0.69" d="M1011.87 635.558C1011.17 630.794 1006.76 627.513 1001.99 628.219C997.229 628.924 993.948 633.333 994.653 638.097C995.359 642.861 999.768 646.142 1004.53 645.436C1009.3 644.731 1012.58 640.322 1011.87 635.558Z" fill="url(#paint8_radial_0_24279)" style="mix-blend-mode:screen"/>
</g>
<g opacity="0.65">
<path d="M759.02 935.747C759.02 935.747 758.971 935.369 758.776 935.345C758.575 935.275 758.398 935.394 758.375 935.589C758.304 935.79 758.423 935.967 758.618 935.99C758.819 936.061 758.997 935.942 759.02 935.747Z" fill="#B8B3FF"/>
<path opacity="0.69" d="M767.068 938.177C768.451 933.579 765.859 928.72 761.213 927.344C756.567 925.967 751.755 928.553 750.379 933.199C748.997 937.798 751.589 942.657 756.235 944.033C760.833 945.415 765.692 942.823 767.068 938.177Z" fill="url(#paint9_radial_0_24279)" style="mix-blend-mode:screen"/>
</g>
<g opacity="0.65">
<path d="M438.826 662.146C438.826 662.146 438.642 661.833 438.453 661.857C438.264 661.881 438.14 662.041 438.164 662.23C438.189 662.419 438.349 662.543 438.538 662.519C438.727 662.495 438.851 662.335 438.826 662.146Z" fill="#B8B3FF"/>
<path opacity="0.69" d="M447.131 660.939C446.425 656.175 442.017 652.894 437.253 653.6C432.489 654.305 429.208 658.714 429.913 663.478C430.619 668.242 435.028 671.523 439.792 670.817C444.556 670.112 447.836 665.703 447.131 660.939Z" fill="url(#paint10_radial_0_24279)" style="mix-blend-mode:screen"/>
</g>
<path d="M1221.03 853.866C1221.16 853.369 1220.91 852.873 1220.41 852.744C1219.91 852.615 1219.42 852.871 1219.29 853.368C1219.16 853.865 1219.42 854.361 1219.91 854.49C1220.41 854.618 1220.91 854.363 1221.03 853.866Z" fill="#B8B3FF"/>
<path opacity="0.69" d="M1242.58 860.338C1246.33 847.939 1239.27 834.856 1226.88 831.155C1214.48 827.406 1201.39 834.462 1197.69 846.855C1193.94 859.253 1201 872.337 1213.39 876.038C1225.79 879.74 1238.88 872.73 1242.58 860.338Z" fill="url(#paint11_radial_0_24279)" style="mix-blend-mode:screen"/>
<g opacity="0.65">
<path d="M907.398 499.644C907.398 499.644 907.35 499.266 907.155 499.243C906.954 499.173 906.777 499.291 906.754 499.487C906.73 499.682 906.802 499.865 906.997 499.888C907.198 499.958 907.375 499.84 907.398 499.644Z" fill="#B8B3FF"/>
<path opacity="0.69" d="M915.394 502.034C916.776 497.435 914.184 492.576 909.538 491.2C904.94 489.818 900.081 492.41 898.704 497.056C897.322 501.654 899.914 506.513 904.56 507.889C909.158 509.272 914.017 506.68 915.394 502.034Z" fill="url(#paint12_radial_0_24279)" style="mix-blend-mode:screen"/>
</g>
<g opacity="0.65">
<path d="M947.763 492.078C947.763 492.078 947.715 491.699 947.52 491.676C947.318 491.606 947.141 491.725 947.118 491.92C947.048 492.121 947.167 492.298 947.362 492.321C947.563 492.392 947.74 492.273 947.763 492.078Z" fill="#B8B3FF"/>
<path opacity="0.69" d="M955.765 494.514C957.147 489.916 954.555 485.057 949.909 483.681C945.311 482.298 940.452 484.891 939.075 489.536C937.693 494.135 940.285 498.994 944.931 500.37C949.529 501.752 954.388 499.16 955.765 494.514Z" fill="url(#paint13_radial_0_24279)" style="mix-blend-mode:screen"/>
</g>
<g opacity="0.65">
<path d="M1236.06 717.324C1236.06 717.324 1235.87 717.011 1235.68 717.036C1235.5 717.06 1235.37 717.22 1235.4 717.409C1235.42 717.598 1235.58 717.722 1235.77 717.698C1235.96 717.673 1236.08 717.513 1236.06 717.324Z" fill="#B8B3FF"/>
<path opacity="0.69" d="M1244.36 716.118C1243.66 711.354 1239.25 708.073 1234.48 708.779C1229.72 709.484 1226.44 713.893 1227.14 718.657C1227.85 723.421 1232.26 726.702 1237.02 725.996C1241.79 725.291 1245.07 720.882 1244.36 716.118Z" fill="url(#paint14_radial_0_24279)" style="mix-blend-mode:screen"/>
</g>
<g opacity="0.65">
<path d="M287.551 600.321C287.551 600.321 287.367 600.008 287.172 599.985C286.983 600.009 286.859 600.169 286.836 600.364C286.813 600.559 287.02 600.677 287.215 600.7C287.405 600.676 287.528 600.516 287.551 600.321Z" fill="#B8B3FF"/>
<path opacity="0.69" d="M295.899 599.829C295.619 595.011 291.499 591.357 286.728 591.631C281.91 591.911 278.256 596.031 278.53 600.802C278.803 605.573 282.93 609.274 287.701 609.001C292.472 608.727 296.173 604.601 295.899 599.829Z" fill="url(#paint15_radial_0_24279)" style="mix-blend-mode:screen"/>
</g>
<g opacity="0.65">
<path d="M98.779 514.745C98.779 514.745 98.5949 514.432 98.3998 514.409C98.2106 514.433 98.0868 514.593 98.0637 514.788C98.0879 514.977 98.248 515.101 98.4431 515.124C98.6323 515.1 98.756 514.94 98.779 514.745Z" fill="#B8B3FF"/>
<path opacity="0.69" d="M107.133 514.301C106.853 509.483 102.733 505.828 97.9619 506.102C93.1908 506.376 89.4892 510.502 89.7631 515.273C90.043 520.092 94.1631 523.746 98.9342 523.472C103.753 523.192 107.407 519.072 107.133 514.301Z" fill="url(#paint16_radial_0_24279)" style="mix-blend-mode:screen"/>
</g>
<g opacity="0.65">
<path d="M260.073 649.254C260.073 649.254 259.888 648.941 259.693 648.918C259.504 648.942 259.38 649.102 259.357 649.297C259.382 649.486 259.542 649.61 259.737 649.633C259.926 649.609 260.05 649.449 260.073 649.254Z" fill="#B8B3FF"/>
<path opacity="0.69" d="M268.421 648.762C268.141 643.944 264.021 640.29 259.249 640.564C254.431 640.844 250.777 644.964 251.051 649.735C251.331 654.553 255.451 658.207 260.222 657.934C265.04 657.654 268.694 653.534 268.421 648.762Z" fill="url(#paint17_radial_0_24279)" style="mix-blend-mode:screen"/>
</g>
<g opacity="0.65">
<path d="M808.482 698.726C808.482 698.726 808.434 698.348 808.239 698.325C808.037 698.255 807.86 698.373 807.837 698.569C807.767 698.77 807.886 698.947 808.081 698.97C808.282 699.04 808.459 698.922 808.482 698.726Z" fill="#B8B3FF"/>
<path opacity="0.69" d="M816.531 701.157C817.913 696.558 815.321 691.699 810.676 690.323C806.077 688.941 801.218 691.533 799.842 696.179C798.46 700.777 801.052 705.636 805.697 707.012C810.296 708.395 815.155 705.803 816.531 701.157Z" fill="url(#paint18_radial_0_24279)" style="mix-blend-mode:screen"/>
</g>
<g opacity="0.65">
<path d="M1024.04 837.396C1024.04 837.396 1023.99 837.018 1023.8 836.995C1023.6 836.925 1023.42 837.043 1023.39 837.238C1023.32 837.44 1023.44 837.617 1023.64 837.64C1023.84 837.71 1024.02 837.591 1024.04 837.396Z" fill="#B8B3FF"/>
<path opacity="0.69" d="M1032.04 839.833C1033.42 835.235 1030.83 830.376 1026.19 828.999C1021.59 827.617 1016.73 830.209 1015.35 834.855C1013.97 839.453 1016.56 844.312 1021.21 845.689C1025.81 847.071 1030.67 844.479 1032.04 839.833Z" fill="url(#paint19_radial_0_24279)" style="mix-blend-mode:screen"/>
</g>
<path d="M959.94 894.233C960.069 893.736 959.813 893.24 959.316 893.111C958.819 892.983 958.323 893.238 958.194 893.735C958.065 894.232 958.321 894.728 958.818 894.857C959.315 894.986 959.811 894.73 959.94 894.233Z" fill="#B8B3FF"/>
<path opacity="0.69" d="M981.53 900.699C985.278 888.3 978.222 875.217 965.829 871.516C953.437 867.814 940.347 874.824 936.646 887.216C932.897 899.615 939.954 912.698 952.346 916.399C964.739 920.101 977.828 913.092 981.53 900.699Z" fill="url(#paint20_radial_0_24279)" style="mix-blend-mode:screen"/>
<g opacity="0.65">
<path d="M887.74 914.427C887.74 914.427 887.692 914.049 887.496 914.026C887.295 913.955 887.118 914.074 887.095 914.269C887.025 914.47 887.143 914.647 887.339 914.671C887.54 914.741 887.717 914.622 887.74 914.427Z" fill="#B8B3FF"/>
<path opacity="0.69" d="M895.742 916.864C897.124 912.265 894.532 907.406 889.886 906.03C885.288 904.648 880.429 907.24 879.052 911.885C877.67 916.484 880.262 921.343 884.908 922.719C889.506 924.101 894.365 921.509 895.742 916.864Z" fill="url(#paint21_radial_0_24279)" style="mix-blend-mode:screen"/>
</g>
<g opacity="0.65">
<path d="M1253.16 667.653C1253.16 667.653 1252.97 667.34 1252.78 667.364C1252.6 667.388 1252.47 667.548 1252.5 667.737C1252.52 667.927 1252.68 668.05 1252.87 668.026C1253.06 668.002 1253.18 667.842 1253.16 667.653Z" fill="#B8B3FF"/>
<path opacity="0.69" d="M1261.46 666.446C1260.76 661.682 1256.35 658.402 1251.58 659.107C1246.82 659.813 1243.54 664.221 1244.24 668.985C1244.95 673.749 1249.36 677.03 1254.12 676.325C1258.89 675.619 1262.17 671.21 1261.46 666.446Z" fill="url(#paint22_radial_0_24279)" style="mix-blend-mode:screen"/>
</g>
<g opacity="0.65">
<path d="M994.855 891.402C994.855 891.402 994.806 891.023 994.611 891C994.41 890.93 994.233 891.049 994.21 891.244C994.139 891.445 994.258 891.622 994.453 891.645C994.654 891.716 994.831 891.597 994.855 891.402Z" fill="#B8B3FF"/>
<path opacity="0.69" d="M1002.85 893.791C1004.23 889.192 1001.64 884.333 996.995 882.957C992.349 881.581 987.537 884.167 986.161 888.812C984.779 893.411 987.371 898.27 992.016 899.646C996.615 901.028 1001.47 898.436 1002.85 893.791Z" fill="url(#paint23_radial_0_24279)" style="mix-blend-mode:screen"/>
</g>
</g>
<path d="M1575.98 995.228C1575.98 995.228 1383.88 893.063 1378.15 898.265C1372.42 903.42 1422.98 937.997 1422.98 937.997C1422.98 937.997 1277.82 860.107 1242.03 832.773C1242.03 832.773 1251.67 799.531 1180.72 769.389C1180.72 769.389 1316.78 819.703 1399.46 811.24C1399.46 811.24 1095.14 605.682 1061.38 631.821C1061.38 631.821 973.646 579.074 920.548 558.856C920.548 558.856 977.479 684.558 993.031 705.446C1008.63 726.327 1056.64 764.642 1056.64 764.642C1056.64 764.642 1089.85 866.849 1136.27 900.563C1136.27 900.563 1048.76 915.265 980.026 900.219C911.297 885.172 796.816 873.912 721.122 916.756C721.122 916.756 675.49 914.711 647.225 939.09C647.225 939.09 625.183 873.855 610.117 843.244C595.057 812.682 538.337 754.382 539.661 783.145C539.661 783.145 343.271 666.198 306.913 648.356C270.556 630.515 231.006 617.022 231.006 617.022C231.006 617.022 153.399 521.311 125 505.191C96.6002 489.071 86.8014 501.138 86.8014 501.138L-83.9644 407.923C-83.9644 407.923 59.8367 461.668 87.5368 473.072C115.237 484.476 153.07 499.197 153.07 499.197C153.07 499.197 135.307 509.496 195.099 562.5C254.89 615.505 271.14 634.333 378.238 661.149C485.336 687.964 638.51 739.837 638.51 739.837C638.51 739.837 626.076 733.931 661.086 795.344C696.097 856.757 715.545 871.283 715.545 871.283C715.545 871.283 883.202 896.985 1045.92 849.112C1045.92 849.112 1011.01 675.799 826.548 495.424C826.548 495.424 992.148 506.922 1144.19 637.088C1144.19 637.088 1079.92 586.674 1063.23 591.068C1046.48 595.421 1301.56 744.319 1321.95 751.948C1342.34 759.576 1204.42 666.871 1204.42 666.871C1204.42 666.871 1424.33 786.192 1522.52 871.147C1522.52 871.147 1331.27 809.39 1273.9 806.155C1273.9 806.155 1344.9 859.938 1576.07 995.168L1575.98 995.228Z" fill="#6236FF"/>
<g style="mix-blend-mode:screen">
<path d="M103.417 488.631C96.8338 486.013 90.2923 483.341 84.2064 480.851C74.8231 477.005 51.772 468.131 25.507 458.178L86.1639 491.27C89.9546 489.344 95.5675 487.761 103.417 488.631Z" fill="#4426FF"/>
</g>
<g style="mix-blend-mode:screen">
<path d="M1236.58 796.174C1248.61 809.823 1250.77 821.849 1250.8 828.815C1273.71 845.205 1327.2 875.658 1369.26 899.018C1369.35 896.315 1370.47 893.817 1372.5 892.019C1375.13 889.664 1377.03 887.98 1388.76 892.15C1301.25 837.356 1269.19 813.246 1268.71 812.922L1252.32 800.505C1246.85 799.042 1241.57 797.603 1236.53 796.18L1236.58 796.174Z" fill="#4426FF"/>
</g>
<g style="mix-blend-mode:screen">
<path d="M1048.15 857.189C1004.47 870.033 960.312 877.605 918.992 881.833C946.626 884.834 969.103 889.216 981.759 891.971C1029.82 902.5 1088.16 897.969 1116.96 894.669C1080.02 856.092 1054.32 784.068 1049.4 769.654C1044.15 765.423 1029.44 753.367 1014.97 740.223C1044.57 802.521 1053.29 844.035 1054.03 847.498L1055.57 855.039L1048.15 857.189Z" fill="#4426FF"/>
</g>
<g style="mix-blend-mode:screen">
<path d="M349.942 662.365C408.239 695.423 505.385 753.022 535.191 770.74C537.313 768.547 539.753 767.706 540.917 767.413C561.249 762.168 606.274 816.582 617.574 839.551C629.131 863.016 644.426 905.565 651.408 925.578C677.343 909.284 709.75 908.262 718.933 908.289C738.74 897.441 760.734 890.158 783.45 885.522C741.403 883.691 714.747 879.7 714.061 879.595L712.002 879.282L710.302 878.01C709.448 877.35 688.997 861.751 653.541 799.481C636.187 769.019 629.521 753.724 628 745.219C595.767 734.443 468.011 692.295 376.009 669.268C366.671 666.906 357.972 664.654 349.894 662.371L349.942 662.365Z" fill="#4426FF"/>
</g>
<g style="mix-blend-mode:screen">
<path d="M904.432 543.711L923.481 550.983C970.566 568.894 1042.92 611.113 1061.38 622.064C1066 620.271 1073.72 619.717 1088.93 624.066C1053.48 600.149 1053.69 595.749 1053.9 591.444C1054.05 588.83 1055.24 586.514 1057.11 584.93C969.971 532.684 888.765 513.658 849.862 507.1C881.454 539.537 908.326 571.521 931.126 602.103C921.125 580.649 913.686 564.203 912.823 562.343L904.391 543.764L904.432 543.711Z" fill="#4426FF"/>
</g>
<g style="mix-blend-mode:screen">
<path d="M1331.38 756.125C1331.38 756.125 1331.26 756.379 1331.14 756.539C1373.33 783.536 1403.68 803.973 1404.15 804.297L1423.35 817.268L1400.3 819.64C1394.46 820.242 1388.35 820.544 1382.07 820.627C1418.06 830.345 1454.94 841.391 1482.25 849.769C1438.28 816.705 1382.57 781.008 1332.29 750.528C1332.44 750.894 1332.53 751.267 1332.58 751.598C1332.79 753.3 1332.15 754.632 1331.38 756.125Z" fill="#4426FF"/>
</g>
<path d="M1068.87 848.194L1071.91 863.329L1057.13 867.67C1033.79 874.549 1009.14 880.249 983.429 884.74C985.849 885.248 988.074 885.732 990.144 886.14C1029.25 894.691 1075.43 893.062 1106.65 890.317C1075.94 851.231 1054.66 793.829 1048.86 777.029C1047.62 776.033 1046.12 774.784 1044.45 773.411C1062.2 816.75 1068.15 844.489 1068.87 848.194Z" fill="#DEDCFF"/>
<path d="M729.381 887.392C714.346 885.951 705.815 884.639 705.667 884.61L701.503 883.989L698.155 881.486C695.873 879.807 674.846 863.08 639.146 800.409C624.882 775.32 617.013 759.264 613.854 748.47C578.164 736.599 483.158 705.497 401.54 683.256C450.506 711.74 503.862 743.364 527.685 757.522C529.267 756.743 530.697 756.272 531.678 756.05C560.944 748.51 609.469 815.259 617.98 832.578C628.044 853.014 640.648 886.919 648.857 910.14C672.777 898.381 698.955 896.763 709.61 896.649C715.863 893.302 722.441 890.25 729.387 887.439L729.381 887.392Z" fill="#DEDCFF"/>
<path d="M918.261 536.848C958.526 552.171 1016.1 584.457 1045.07 601.32C1037.98 594.298 1037.04 589.949 1037.28 584.727C1037.34 583.71 1037.46 582.734 1037.67 581.746C970.532 542.705 907.75 523.437 865.847 514.091C873.101 521.958 880.226 529.938 887.215 537.983L880.115 522.31L918.261 536.848Z" fill="#DEDCFF"/>
<path d="M1194.05 608.698C1194.05 608.698 1089.27 529.391 1031.03 505.072C1031.03 505.072 1055.43 552.271 950.678 525.011L979.584 538.327C979.584 538.327 1041.3 537.642 1035.85 514.933C1035.85 514.933 1083.77 529.998 1194.04 608.651L1194.05 608.698Z" fill="#6236FF"/>
<path d="M1264.91 724.976C1264.91 724.976 1364.54 793.312 1345.89 810.259L1359.05 814.632C1359.05 814.632 1344.5 797.508 1340.01 783.424C1340.01 783.424 1310.03 759.864 1309.46 752.729L1281.37 733.397L1264.86 724.982L1264.91 724.976Z" fill="#6236FF"/>
<path d="M972.448 668.524C972.448 668.524 954.301 600.677 955.954 589.555C957.614 578.481 984.809 588.94 984.809 588.94L968.356 577.924C968.356 577.924 958.887 587.306 951.221 584.489C951.221 584.489 967.561 646.849 961.21 652.804L969.483 667.51L972.448 668.524Z" fill="#6236FF"/>
<path d="M681.863 829.645C681.863 829.645 737.963 838.762 767.376 876.332L790.156 881.588C790.156 881.588 710.734 832.921 705.785 828.796C705.785 828.796 684.44 835.515 671.206 812.841C657.973 790.167 672.991 824.917 672.991 824.917L681.863 829.645Z" fill="#6236FF"/>
<path d="M391.856 673.296C391.856 673.296 402.032 667.188 415.685 670.969C429.337 674.749 477.119 672.194 477.119 672.194L614.32 723.563C614.32 723.563 469.626 673.729 460.605 674.595C451.584 675.46 430.88 678.926 430.88 678.926L391.903 673.29L391.856 673.296Z" fill="#6236FF"/>
<path d="M180.057 548.612C180.057 548.612 344.668 660.588 415.637 670.975L356.805 655.527C356.805 655.527 244.119 593.669 220.323 584.986C196.527 576.303 180.057 548.612 180.057 548.612Z" fill="#6236FF"/>
<path d="M913.287 874.056C913.287 874.056 915.006 873.596 917.972 872.736C933.818 868.113 985.199 852.361 996.604 839.704C1010.16 824.705 986.701 704.045 986.701 704.045L1004.93 726.705C1004.93 726.705 991.425 751.501 1008.28 832.202C1008.28 832.202 1002.16 832.025 998.275 851.265C998.275 851.265 968.311 852.215 940.951 870.902L913.287 874.056Z" fill="#6236FF"/>
<path d="M1277.17 855.768C1277.17 855.768 1315.17 887.915 1328.91 912.687L1487.65 999.461L1327.79 905.091C1327.79 905.091 1302.77 880.754 1300.27 869.538C1297.78 858.322 1277.13 855.774 1277.13 855.774L1277.17 855.768Z" fill="#6236FF"/>
<path d="M170.675 547.409C196.011 575.648 204.309 654.416 204.309 654.416L275.995 717.001C275.995 717.001 292.973 717.473 335.792 724.203C335.792 724.203 329.465 722.465 282.036 716.133C282.036 716.133 213.209 675.53 205.271 631.128C197.332 586.725 198.995 579.063 198.995 579.063L184.665 555.328L170.675 547.409Z" fill="#6236FF"/>
<path d="M275.948 717.008L281.437 732.118L279.158 716.549L275.948 717.008Z" fill="#6236FF"/>
<g opacity="0.5">
<path opacity="0.58" d="M1168.4 904.03C1420.6 1092.02 1671.53 1182.05 1728.87 1105.12C1786.2 1028.2 1628.24 813.449 1376.04 625.464C1123.84 437.478 872.915 347.445 815.576 424.369C758.238 501.293 916.203 716.044 1168.4 904.03Z" fill="url(#paint24_radial_0_24279)" style="mix-blend-mode:screen"/>
<path opacity="0.58" d="M839.697 733.877C944.848 905.605 1090.19 1008.01 1164.34 962.616C1238.48 917.218 1213.34 741.202 1108.19 569.474C1003.04 397.746 857.695 295.336 783.552 340.734C709.409 386.133 734.546 562.149 839.697 733.877Z" fill="url(#paint25_radial_0_24279)" style="mix-blend-mode:screen"/>
<path opacity="0.58" d="M856.88 1028.93C1058.22 1031.95 1222.5 963.934 1223.8 877.006C1225.11 790.078 1062.95 717.157 861.608 714.133C660.267 711.109 495.99 779.127 494.685 866.056C493.379 952.984 655.539 1025.9 856.88 1028.93Z" fill="url(#paint26_radial_0_24279)" style="mix-blend-mode:screen"/>
<path opacity="0.58" d="M503.477 916.701C667.062 1034.12 840.77 1072.05 891.465 1001.43C942.161 930.799 850.646 778.357 687.062 660.938C523.477 543.519 349.769 505.586 299.073 576.213C248.378 646.84 339.893 799.282 503.477 916.701Z" fill="url(#paint27_radial_0_24279)" style="mix-blend-mode:screen"/>
<path opacity="0.58" d="M254.419 796.297C519.546 926.585 765.952 968.148 804.783 889.13C843.614 810.112 660.165 640.435 395.039 510.147C129.912 379.858 -116.494 338.295 -155.325 417.314C-194.156 496.332 -10.7073 666.008 254.419 796.297Z" fill="url(#paint28_radial_0_24279)" style="mix-blend-mode:screen"/>
</g>
<rect x="-258" y="405" width="2032" height="655" fill="url(#paint29_linear_0_24279)"/>
</g>
<defs>
<radialGradient id="paint0_radial_0_24279" cx="0" cy="0" r="1" gradientUnits="userSpaceOnUse" gradientTransform="translate(586.985 870.075) rotate(16.7204) scale(23.455 23.4549)">
<stop stop-color="#D400FF"/>
<stop offset="0.12" stop-color="#A500C6"/>
<stop offset="0.24" stop-color="#790092"/>
<stop offset="0.37" stop-color="#540065"/>
<stop offset="0.5" stop-color="#350040"/>
<stop offset="0.62" stop-color="#1E0024"/>
<stop offset="0.75" stop-color="#0D0010"/>
<stop offset="0.88" stop-color="#030004"/>
<stop offset="1"/>
</radialGradient>
<radialGradient id="paint1_radial_0_24279" cx="0" cy="0" r="1" gradientUnits="userSpaceOnUse" gradientTransform="translate(958.121 739.846) rotate(16.7204) scale(23.4549 23.455)">
<stop stop-color="#5600FF"/>
<stop offset="0.12" stop-color="#4200C6"/>
<stop offset="0.24" stop-color="#310092"/>
<stop offset="0.37" stop-color="#220065"/>
<stop offset="0.5" stop-color="#150040"/>
<stop offset="0.62" stop-color="#0C0024"/>
<stop offset="0.75" stop-color="#050010"/>
<stop offset="0.88" stop-color="#010004"/>
<stop offset="1"/>
</radialGradient>
<radialGradient id="paint2_radial_0_24279" cx="0" cy="0" r="1" gradientUnits="userSpaceOnUse" gradientTransform="translate(1439.01 889.184) rotate(16.7204) scale(23.455 23.455)">
<stop stop-color="#5600FF"/>
<stop offset="0.12" stop-color="#4200C6"/>
<stop offset="0.24" stop-color="#310092"/>
<stop offset="0.37" stop-color="#220065"/>
<stop offset="0.5" stop-color="#150040"/>
<stop offset="0.62" stop-color="#0C0024"/>
<stop offset="0.75" stop-color="#050010"/>
<stop offset="0.88" stop-color="#010004"/>
<stop offset="1"/>
</radialGradient>
<radialGradient id="paint3_radial_0_24279" cx="0" cy="0" r="1" gradientUnits="userSpaceOnUse" gradientTransform="translate(521.764 655.385) rotate(-8.29958) scale(23.4549)">
<stop stop-color="#5600FF"/>
<stop offset="0.12" stop-color="#4200C6"/>
<stop offset="0.24" stop-color="#310092"/>
<stop offset="0.37" stop-color="#220065"/>
<stop offset="0.5" stop-color="#150040"/>
<stop offset="0.62" stop-color="#0C0024"/>
<stop offset="0.75" stop-color="#050010"/>
<stop offset="0.88" stop-color="#010004"/>
<stop offset="1"/>
</radialGradient>
<radialGradient id="paint4_radial_0_24279" cx="0" cy="0" r="1" gradientUnits="userSpaceOnUse" gradientTransform="translate(1275.12 708.407) rotate(-8.29958) scale(23.455 23.4549)">
<stop stop-color="#D400FF"/>
<stop offset="0.12" stop-color="#A500C6"/>
<stop offset="0.24" stop-color="#790092"/>
<stop offset="0.37" stop-color="#540065"/>
<stop offset="0.5" stop-color="#350040"/>
<stop offset="0.62" stop-color="#1E0024"/>
<stop offset="0.75" stop-color="#0D0010"/>
<stop offset="0.88" stop-color="#030004"/>
<stop offset="1"/>
</radialGradient>
<radialGradient id="paint5_radial_0_24279" cx="0" cy="0" r="1" gradientUnits="userSpaceOnUse" gradientTransform="translate(215.516 551.019) rotate(-3.19958) scale(23.4549 23.455)">
<stop stop-color="#D400FF"/>
<stop offset="0.12" stop-color="#A500C6"/>
<stop offset="0.24" stop-color="#790092"/>
<stop offset="0.37" stop-color="#540065"/>
<stop offset="0.5" stop-color="#350040"/>
<stop offset="0.62" stop-color="#1E0024"/>
<stop offset="0.75" stop-color="#0D0010"/>
<stop offset="0.88" stop-color="#030004"/>
<stop offset="1"/>
</radialGradient>
<radialGradient id="paint6_radial_0_24279" cx="0" cy="0" r="1" gradientUnits="userSpaceOnUse" gradientTransform="translate(781.544 843.302) rotate(16.7204) scale(23.4549)">
<stop stop-color="#D400FF"/>
<stop offset="0.12" stop-color="#A500C6"/>
<stop offset="0.24" stop-color="#790092"/>
<stop offset="0.37" stop-color="#540065"/>
<stop offset="0.5" stop-color="#350040"/>
<stop offset="0.62" stop-color="#1E0024"/>
<stop offset="0.75" stop-color="#0D0010"/>
<stop offset="0.88" stop-color="#030004"/>
<stop offset="1"/>
</radialGradient>
<radialGradient id="paint7_radial_0_24279" cx="0" cy="0" r="1" gradientUnits="userSpaceOnUse" gradientTransform="translate(1148.1 822.254) rotate(16.7204) scale(8.72411)">
<stop stop-color="#5600FF"/>
<stop offset="0.12" stop-color="#4200C6"/>
<stop offset="0.24" stop-color="#310092"/>
<stop offset="0.37" stop-color="#220065"/>
<stop offset="0.5" stop-color="#150040"/>
<stop offset="0.62" stop-color="#0C0024"/>
<stop offset="0.75" stop-color="#050010"/>
<stop offset="0.88" stop-color="#010004"/>
<stop offset="1"/>
</radialGradient>
<radialGradient id="paint8_radial_0_24279" cx="0" cy="0" r="1" gradientUnits="userSpaceOnUse" gradientTransform="translate(1003.32 636.526) rotate(-8.29958) scale(8.72412 8.7241)">
<stop stop-color="#5600FF"/>
<stop offset="0.12" stop-color="#4200C6"/>
<stop offset="0.24" stop-color="#310092"/>
<stop offset="0.37" stop-color="#220065"/>
<stop offset="0.5" stop-color="#150040"/>
<stop offset="0.62" stop-color="#0C0024"/>
<stop offset="0.75" stop-color="#050010"/>
<stop offset="0.88" stop-color="#010004"/>
<stop offset="1"/>
</radialGradient>
<radialGradient id="paint9_radial_0_24279" cx="0" cy="0" r="1" gradientUnits="userSpaceOnUse" gradientTransform="translate(758.655 935.732) rotate(16.7204) scale(8.72409 8.72409)">
<stop stop-color="#5600FF"/>
<stop offset="0.12" stop-color="#4200C6"/>
<stop offset="0.24" stop-color="#310092"/>
<stop offset="0.37" stop-color="#220065"/>
<stop offset="0.5" stop-color="#150040"/>
<stop offset="0.62" stop-color="#0C0024"/>
<stop offset="0.75" stop-color="#050010"/>
<stop offset="0.88" stop-color="#010004"/>
<stop offset="1"/>
</radialGradient>
<radialGradient id="paint10_radial_0_24279" cx="0" cy="0" r="1" gradientUnits="userSpaceOnUse" gradientTransform="translate(438.537 661.922) rotate(-8.29958) scale(8.72416 8.7241)">
<stop stop-color="#5600FF"/>
<stop offset="0.12" stop-color="#4200C6"/>
<stop offset="0.24" stop-color="#310092"/>
<stop offset="0.37" stop-color="#220065"/>
<stop offset="0.5" stop-color="#150040"/>
<stop offset="0.62" stop-color="#0C0024"/>
<stop offset="0.75" stop-color="#050010"/>
<stop offset="0.88" stop-color="#010004"/>
<stop offset="1"/>
</radialGradient>
<radialGradient id="paint11_radial_0_24279" cx="0" cy="0" r="1" gradientUnits="userSpaceOnUse" gradientTransform="translate(1220.05 853.674) rotate(16.7204) scale(23.455 23.4549)">
<stop stop-color="#5600FF"/>
<stop offset="0.12" stop-color="#4200C6"/>
<stop offset="0.24" stop-color="#310092"/>
<stop offset="0.37" stop-color="#220065"/>
<stop offset="0.5" stop-color="#150040"/>
<stop offset="0.62" stop-color="#0C0024"/>
<stop offset="0.75" stop-color="#050010"/>
<stop offset="0.88" stop-color="#010004"/>
<stop offset="1"/>
</radialGradient>
<radialGradient id="paint12_radial_0_24279" cx="0" cy="0" r="1" gradientUnits="userSpaceOnUse" gradientTransform="translate(906.981 499.64) rotate(16.7204) scale(8.72409 8.7241)">
<stop stop-color="#5600FF"/>
<stop offset="0.12" stop-color="#4200C6"/>
<stop offset="0.24" stop-color="#310092"/>
<stop offset="0.37" stop-color="#220065"/>
<stop offset="0.5" stop-color="#150040"/>
<stop offset="0.62" stop-color="#0C0024"/>
<stop offset="0.75" stop-color="#050010"/>
<stop offset="0.88" stop-color="#010004"/>
<stop offset="1"/>
</radialGradient>
<radialGradient id="paint13_radial_0_24279" cx="0" cy="0" r="1" gradientTransform="matrix(8.35526 2.50994 2.50995 -8.35525 947.372 492.112)" gradientUnits="userSpaceOnUse">
<stop stop-color="#5600FF"/>
<stop offset="0.12" stop-color="#4200C6"/>
<stop offset="0.24" stop-color="#310092"/>
<stop offset="0.37" stop-color="#220065"/>
<stop offset="0.5" stop-color="#150040"/>
<stop offset="0.62" stop-color="#0C0024"/>
<stop offset="0.75" stop-color="#050010"/>
<stop offset="0.88" stop-color="#010004"/>
<stop offset="1"/>
</radialGradient>
<radialGradient id="paint14_radial_0_24279" cx="0" cy="0" r="1" gradientUnits="userSpaceOnUse" gradientTransform="translate(1235.77 717.038) rotate(-8.29958) scale(8.7241)">
<stop stop-color="#5600FF"/>
<stop offset="0.12" stop-color="#4200C6"/>
<stop offset="0.24" stop-color="#310092"/>
<stop offset="0.37" stop-color="#220065"/>
<stop offset="0.5" stop-color="#150040"/>
<stop offset="0.62" stop-color="#0C0024"/>
<stop offset="0.75" stop-color="#050010"/>
<stop offset="0.88" stop-color="#010004"/>
<stop offset="1"/>
</radialGradient>
<radialGradient id="paint15_radial_0_24279" cx="0" cy="0" r="1" gradientUnits="userSpaceOnUse" gradientTransform="translate(286.744 600.37) rotate(-3.19956) scale(8.72406 8.7241)">
<stop stop-color="#5600FF"/>
<stop offset="0.12" stop-color="#4200C6"/>
<stop offset="0.24" stop-color="#310092"/>
<stop offset="0.37" stop-color="#220065"/>
<stop offset="0.5" stop-color="#150040"/>
<stop offset="0.62" stop-color="#0C0024"/>
<stop offset="0.75" stop-color="#050010"/>
<stop offset="0.88" stop-color="#010004"/>
<stop offset="1"/>
</radialGradient>
<radialGradient id="paint16_radial_0_24279" cx="0" cy="0" r="1" gradientUnits="userSpaceOnUse" gradientTransform="translate(97.9916 514.807) rotate(-3.19956) scale(8.72406 8.7241)">
<stop stop-color="#5600FF"/>
<stop offset="0.12" stop-color="#4200C6"/>
<stop offset="0.24" stop-color="#310092"/>
<stop offset="0.37" stop-color="#220065"/>
<stop offset="0.5" stop-color="#150040"/>
<stop offset="0.62" stop-color="#0C0024"/>
<stop offset="0.75" stop-color="#050010"/>
<stop offset="0.88" stop-color="#010004"/>
<stop offset="1"/>
</radialGradient>
<radialGradient id="paint17_radial_0_24279" cx="0" cy="0" r="1" gradientUnits="userSpaceOnUse" gradientTransform="translate(259.305 649.317) rotate(-3.19956) scale(8.72406 8.7241)">
<stop stop-color="#5600FF"/>
<stop offset="0.12" stop-color="#4200C6"/>
<stop offset="0.24" stop-color="#310092"/>
<stop offset="0.37" stop-color="#220065"/>
<stop offset="0.5" stop-color="#150040"/>
<stop offset="0.62" stop-color="#0C0024"/>
<stop offset="0.75" stop-color="#050010"/>
<stop offset="0.88" stop-color="#010004"/>
<stop offset="1"/>
</radialGradient>
<radialGradient id="paint18_radial_0_24279" cx="0" cy="0" r="1" gradientUnits="userSpaceOnUse" gradientTransform="translate(808.104 698.713) rotate(16.7204) scale(8.72412 8.72411)">
<stop stop-color="#5600FF"/>
<stop offset="0.12" stop-color="#4200C6"/>
<stop offset="0.24" stop-color="#310092"/>
<stop offset="0.37" stop-color="#220065"/>
<stop offset="0.5" stop-color="#150040"/>
<stop offset="0.62" stop-color="#0C0024"/>
<stop offset="0.75" stop-color="#050010"/>
<stop offset="0.88" stop-color="#010004"/>
<stop offset="1"/>
</radialGradient>
<radialGradient id="paint19_radial_0_24279" cx="0" cy="0" r="1" gradientUnits="userSpaceOnUse" gradientTransform="translate(1023.65 837.382) rotate(16.7204) scale(8.72409 8.72409)">
<stop stop-color="#5600FF"/>
<stop offset="0.12" stop-color="#4200C6"/>
<stop offset="0.24" stop-color="#310092"/>
<stop offset="0.37" stop-color="#220065"/>
<stop offset="0.5" stop-color="#150040"/>
<stop offset="0.62" stop-color="#0C0024"/>
<stop offset="0.75" stop-color="#050010"/>
<stop offset="0.88" stop-color="#010004"/>
<stop offset="1"/>
</radialGradient>
<radialGradient id="paint20_radial_0_24279" cx="0" cy="0" r="1" gradientUnits="userSpaceOnUse" gradientTransform="translate(959.041 894.034) rotate(16.7204) scale(23.4549)">
<stop stop-color="#5600FF"/>
<stop offset="0.12" stop-color="#4200C6"/>
<stop offset="0.24" stop-color="#310092"/>
<stop offset="0.37" stop-color="#220065"/>
<stop offset="0.5" stop-color="#150040"/>
<stop offset="0.62" stop-color="#0C0024"/>
<stop offset="0.75" stop-color="#050010"/>
<stop offset="0.88" stop-color="#010004"/>
<stop offset="1"/>
</radialGradient>
<radialGradient id="paint21_radial_0_24279" cx="0" cy="0" r="1" gradientUnits="userSpaceOnUse" gradientTransform="translate(887.317 914.4) rotate(16.7204) scale(8.72409)">
<stop stop-color="#5600FF"/>
<stop offset="0.12" stop-color="#4200C6"/>
<stop offset="0.24" stop-color="#310092"/>
<stop offset="0.37" stop-color="#220065"/>
<stop offset="0.5" stop-color="#150040"/>
<stop offset="0.62" stop-color="#0C0024"/>
<stop offset="0.75" stop-color="#050010"/>
<stop offset="0.88" stop-color="#010004"/>
<stop offset="1"/>
</radialGradient>
<radialGradient id="paint22_radial_0_24279" cx="0" cy="0" r="1" gradientUnits="userSpaceOnUse" gradientTransform="translate(1252.9 667.374) rotate(-8.29958) scale(8.7241)">
<stop stop-color="#5600FF"/>
<stop offset="0.12" stop-color="#4200C6"/>
<stop offset="0.24" stop-color="#310092"/>
<stop offset="0.37" stop-color="#220065"/>
<stop offset="0.5" stop-color="#150040"/>
<stop offset="0.62" stop-color="#0C0024"/>
<stop offset="0.75" stop-color="#050010"/>
<stop offset="0.88" stop-color="#010004"/>
<stop offset="1"/>
</radialGradient>
<radialGradient id="paint23_radial_0_24279" cx="0" cy="0" r="1" gradientTransform="matrix(8.35526 2.50993 2.50995 -8.35524 994.435 891.376)" gradientUnits="userSpaceOnUse">
<stop stop-color="#5600FF"/>
<stop offset="0.12" stop-color="#4200C6"/>
<stop offset="0.24" stop-color="#310092"/>
<stop offset="0.37" stop-color="#220065"/>
<stop offset="0.5" stop-color="#150040"/>
<stop offset="0.62" stop-color="#0C0024"/>
<stop offset="0.75" stop-color="#050010"/>
<stop offset="0.88" stop-color="#010004"/>
<stop offset="1"/>
</radialGradient>
<radialGradient id="paint24_radial_0_24279" cx="0" cy="0" r="1" gradientUnits="userSpaceOnUse" gradientTransform="translate(1268.65 766.207) rotate(126.7) scale(174.6 570.018)">
<stop stop-color="#5A00FF"/>
<stop offset="0.05" stop-color="#5400EE"/>
<stop offset="0.3" stop-color="#36009A"/>
<stop offset="0.53" stop-color="#1F0058"/>
<stop offset="0.72" stop-color="#0E0028"/>
<stop offset="0.86" stop-color="#03000B"/>
<stop offset="0.94"/>
</radialGradient>
<radialGradient id="paint25_radial_0_24279" cx="0" cy="0" r="1" gradientUnits="userSpaceOnUse" gradientTransform="translate(956.876 662.922) rotate(-31.4796) scale(156.627 364.606)">
<stop stop-color="#5A00FF"/>
<stop offset="0.08" stop-color="#4E00DE"/>
<stop offset="0.26" stop-color="#36009B"/>
<stop offset="0.44" stop-color="#230064"/>
<stop offset="0.59" stop-color="#140038"/>
<stop offset="0.74" stop-color="#090019"/>
<stop offset="0.86" stop-color="#020006"/>
<stop offset="0.94"/>
</radialGradient>
<radialGradient id="paint26_radial_0_24279" cx="0" cy="0" r="1" gradientUnits="userSpaceOnUse" gradientTransform="translate(858.681 903.013) rotate(-89.1396) scale(156.627 364.606)">
<stop stop-color="#5A00FF"/>
<stop offset="0.65" stop-color="#1C004F"/>
<stop offset="0.94"/>
</radialGradient>
<radialGradient id="paint27_radial_0_24279" cx="0" cy="0" r="1" gradientUnits="userSpaceOnUse" gradientTransform="translate(580.181 810.049) rotate(-54.3296) scale(156.598 364.539)">
<stop stop-color="#5A00FF"/>
<stop offset="0.08" stop-color="#4E00DE"/>
<stop offset="0.26" stop-color="#36009B"/>
<stop offset="0.44" stop-color="#230064"/>
<stop offset="0.59" stop-color="#140038"/>
<stop offset="0.74" stop-color="#090019"/>
<stop offset="0.86" stop-color="#020006"/>
<stop offset="0.94"/>
</radialGradient>
<radialGradient id="paint28_radial_0_24279" cx="0" cy="0" r="1" gradientUnits="userSpaceOnUse" gradientTransform="translate(326.661 663.174) rotate(-63.8296) scale(159.194 534.071)">
<stop stop-color="#5A00FF"/>
<stop offset="0.08" stop-color="#4E00DE"/>
<stop offset="0.26" stop-color="#36009B"/>
<stop offset="0.44" stop-color="#230064"/>
<stop offset="0.59" stop-color="#140038"/>
<stop offset="0.74" stop-color="#090019"/>
<stop offset="0.86" stop-color="#020006"/>
<stop offset="0.94"/>
</radialGradient>
<linearGradient id="paint29_linear_0_24279" x1="758" y1="405" x2="758" y2="1060" gradientUnits="userSpaceOnUse">
<stop stop-opacity="0"/>
<stop offset="0.844244" stop-opacity="0.9342"/>
<stop offset="0.883418" stop-opacity="0.954816"/>
<stop offset="0.9257" stop-opacity="0.973579"/>
<stop offset="1"/>
</linearGradient>
<clipPath id="clip0_0_24279">
<rect width="1512" height="1060" fill="white"/>
</clipPath>
</defs>
</svg>
