<svg width="24" height="24" viewBox="0 0 24 24" fill="none" xmlns="http://www.w3.org/2000/svg">
<path d="M12.9 16.5C12.9 16.0858 12.5642 15.75 12.15 15.75C11.7358 15.75 11.4 16.0858 11.4 16.5H12.9ZM11.4 18.6C11.4 19.0142 11.7358 19.35 12.15 19.35C12.5642 19.35 12.9 19.0142 12.9 18.6H11.4ZM7.14998 22H6.39998V22.75H7.14998V22ZM17.15 22V22.75H17.9V22H17.15ZM6.14998 21.25C5.73576 21.25 5.39998 21.5858 5.39998 22C5.39998 22.4142 5.73576 22.75 6.14998 22.75V21.25ZM18.15 22.75C18.5642 22.75 18.9 22.4142 18.9 22C18.9 21.5858 18.5642 21.25 18.15 21.25V22.75ZM5.46998 11.65L5.2414 12.3643C5.52131 12.4539 5.82775 12.3717 6.02529 12.1541C6.22283 11.9365 6.27507 11.6236 6.15892 11.3536L5.46998 11.65ZM3.53998 10.45L2.98251 10.9517C2.9913 10.9615 3.00035 10.971 3.00965 10.9803L3.53998 10.45ZM5.18998 4.35L5.87778 4.64904C5.97858 4.41721 5.9558 4.15019 5.81719 3.93877C5.67857 3.72736 5.44278 3.6 5.18998 3.6V4.35ZM4.88998 8.85H5.63998H4.88998ZM18.53 11.65L17.841 11.3536C17.7249 11.6236 17.7771 11.9365 17.9747 12.1541C18.1722 12.3717 18.4786 12.4539 18.7586 12.3643L18.53 11.65ZM20.46 10.45L20.9903 10.9803C20.9996 10.971 21.0087 10.9615 21.0175 10.9517L20.46 10.45ZM18.81 4.35V3.6C18.5572 3.6 18.3214 3.72736 18.1828 3.93877C18.0442 4.15019 18.0214 4.41721 18.1222 4.64904L18.81 4.35ZM19.11 8.85H19.86H19.11ZM11.4 16.5V18.6H12.9V16.5H11.4ZM7.14998 22.75H17.15V21.25H7.14998V22.75ZM17.9 22V21H16.4V22H17.9ZM17.9 21C17.9 19.4858 16.6642 18.25 15.15 18.25V19.75C15.8358 19.75 16.4 20.3142 16.4 21H17.9ZM15.15 18.25H9.14998V19.75H15.15V18.25ZM9.14998 18.25C7.63576 18.25 6.39998 19.4858 6.39998 21H7.89998C7.89998 20.3142 8.46419 19.75 9.14998 19.75V18.25ZM6.39998 21V22H7.89998V21H6.39998ZM6.14998 22.75H18.15V21.25H6.14998V22.75ZM12 15.25C8.54419 15.25 5.74998 12.4558 5.74998 9H4.24998C4.24998 13.2842 7.71576 16.75 12 16.75V15.25ZM5.74998 9V6H4.24998V9H5.74998ZM5.74998 6C5.74998 4.20421 7.20419 2.75 8.99998 2.75V1.25C6.37576 1.25 4.24998 3.37579 4.24998 6H5.74998ZM8.99998 2.75H15V1.25H8.99998V2.75ZM15 2.75C16.7958 2.75 18.25 4.20421 18.25 6H19.75C19.75 3.37579 17.6242 1.25 15 1.25V2.75ZM18.25 6V9H19.75V6H18.25ZM18.25 9C18.25 12.4558 15.4558 15.25 12 15.25V16.75C16.2842 16.75 19.75 13.2842 19.75 9H18.25ZM5.69856 10.9357C5.07837 10.7372 4.51856 10.3679 4.07031 9.91967L3.00965 10.9803C3.60139 11.5721 4.36158 12.0828 5.2414 12.3643L5.69856 10.9357ZM4.09745 9.94828C3.28647 9.04719 2.78998 8.01842 2.78998 6.85H1.28998C1.28998 8.48158 1.99349 9.85281 2.98251 10.9517L4.09745 9.94828ZM2.78998 6.85C2.78998 5.86421 3.55419 5.1 4.53998 5.1V3.6C2.72576 3.6 1.28998 5.03579 1.28998 6.85H2.78998ZM4.53998 5.1H5.18998V3.6H4.53998V5.1ZM4.50218 4.05096C4.25771 4.61323 4.13998 5.2261 4.13998 5.85H5.63998C5.63998 5.4139 5.72225 5.00677 5.87778 4.64904L4.50218 4.05096ZM4.13998 5.85V8.85H5.63998V5.85H4.13998ZM4.13998 8.85C4.13998 9.95699 4.3728 10.9975 4.78103 11.9464L6.15892 11.3536C5.82715 10.5825 5.63998 9.74301 5.63998 8.85H4.13998ZM18.7586 12.3643C19.6384 12.0828 20.3986 11.5721 20.9903 10.9803L19.9296 9.91967C19.4814 10.3679 18.9216 10.7372 18.3014 10.9357L18.7586 12.3643ZM21.0175 10.9517C22.0065 9.85281 22.71 8.48158 22.71 6.85H21.21C21.21 8.01842 20.7135 9.04719 19.9025 9.94828L21.0175 10.9517ZM22.71 6.85C22.71 5.03579 21.2742 3.6 19.46 3.6V5.1C20.4458 5.1 21.21 5.86421 21.21 6.85H22.71ZM19.46 3.6H18.81V5.1H19.46V3.6ZM18.1222 4.64904C18.2777 5.00678 18.36 5.4139 18.36 5.85H19.86C19.86 5.2261 19.7422 4.61322 19.4978 4.05096L18.1222 4.64904ZM18.36 5.85V8.85H19.86V5.85H18.36ZM18.36 8.85C18.36 9.74301 18.1728 10.5825 17.841 11.3536L19.2189 11.9464C19.6272 10.9975 19.86 9.95699 19.86 8.85H18.36Z" fill="url(#paint0_linear_0_24415)"/>
<path d="M12.9 16.5C12.9 16.0858 12.5642 15.75 12.15 15.75C11.7358 15.75 11.4 16.0858 11.4 16.5H12.9ZM11.4 18.6C11.4 19.0142 11.7358 19.35 12.15 19.35C12.5642 19.35 12.9 19.0142 12.9 18.6H11.4ZM7.14998 22H6.39998V22.75H7.14998V22ZM17.15 22V22.75H17.9V22H17.15ZM6.14998 21.25C5.73576 21.25 5.39998 21.5858 5.39998 22C5.39998 22.4142 5.73576 22.75 6.14998 22.75V21.25ZM18.15 22.75C18.5642 22.75 18.9 22.4142 18.9 22C18.9 21.5858 18.5642 21.25 18.15 21.25V22.75ZM5.46998 11.65L5.2414 12.3643C5.52131 12.4539 5.82775 12.3717 6.02529 12.1541C6.22283 11.9365 6.27507 11.6236 6.15892 11.3536L5.46998 11.65ZM3.53998 10.45L2.98251 10.9517C2.9913 10.9615 3.00035 10.971 3.00965 10.9803L3.53998 10.45ZM5.18998 4.35L5.87778 4.64904C5.97858 4.41721 5.9558 4.15019 5.81719 3.93877C5.67857 3.72736 5.44278 3.6 5.18998 3.6V4.35ZM4.88998 8.85H5.63998H4.88998ZM18.53 11.65L17.841 11.3536C17.7249 11.6236 17.7771 11.9365 17.9747 12.1541C18.1722 12.3717 18.4786 12.4539 18.7586 12.3643L18.53 11.65ZM20.46 10.45L20.9903 10.9803C20.9996 10.971 21.0087 10.9615 21.0175 10.9517L20.46 10.45ZM18.81 4.35V3.6C18.5572 3.6 18.3214 3.72736 18.1828 3.93877C18.0442 4.15019 18.0214 4.41721 18.1222 4.64904L18.81 4.35ZM19.11 8.85H19.86H19.11ZM11.4 16.5V18.6H12.9V16.5H11.4ZM7.14998 22.75H17.15V21.25H7.14998V22.75ZM17.9 22V21H16.4V22H17.9ZM17.9 21C17.9 19.4858 16.6642 18.25 15.15 18.25V19.75C15.8358 19.75 16.4 20.3142 16.4 21H17.9ZM15.15 18.25H9.14998V19.75H15.15V18.25ZM9.14998 18.25C7.63576 18.25 6.39998 19.4858 6.39998 21H7.89998C7.89998 20.3142 8.46419 19.75 9.14998 19.75V18.25ZM6.39998 21V22H7.89998V21H6.39998ZM6.14998 22.75H18.15V21.25H6.14998V22.75ZM12 15.25C8.54419 15.25 5.74998 12.4558 5.74998 9H4.24998C4.24998 13.2842 7.71576 16.75 12 16.75V15.25ZM5.74998 9V6H4.24998V9H5.74998ZM5.74998 6C5.74998 4.20421 7.20419 2.75 8.99998 2.75V1.25C6.37576 1.25 4.24998 3.37579 4.24998 6H5.74998ZM8.99998 2.75H15V1.25H8.99998V2.75ZM15 2.75C16.7958 2.75 18.25 4.20421 18.25 6H19.75C19.75 3.37579 17.6242 1.25 15 1.25V2.75ZM18.25 6V9H19.75V6H18.25ZM18.25 9C18.25 12.4558 15.4558 15.25 12 15.25V16.75C16.2842 16.75 19.75 13.2842 19.75 9H18.25ZM5.69856 10.9357C5.07837 10.7372 4.51856 10.3679 4.07031 9.91967L3.00965 10.9803C3.60139 11.5721 4.36158 12.0828 5.2414 12.3643L5.69856 10.9357ZM4.09745 9.94828C3.28647 9.04719 2.78998 8.01842 2.78998 6.85H1.28998C1.28998 8.48158 1.99349 9.85281 2.98251 10.9517L4.09745 9.94828ZM2.78998 6.85C2.78998 5.86421 3.55419 5.1 4.53998 5.1V3.6C2.72576 3.6 1.28998 5.03579 1.28998 6.85H2.78998ZM4.53998 5.1H5.18998V3.6H4.53998V5.1ZM4.50218 4.05096C4.25771 4.61323 4.13998 5.2261 4.13998 5.85H5.63998C5.63998 5.4139 5.72225 5.00677 5.87778 4.64904L4.50218 4.05096ZM4.13998 5.85V8.85H5.63998V5.85H4.13998ZM4.13998 8.85C4.13998 9.95699 4.3728 10.9975 4.78103 11.9464L6.15892 11.3536C5.82715 10.5825 5.63998 9.74301 5.63998 8.85H4.13998ZM18.7586 12.3643C19.6384 12.0828 20.3986 11.5721 20.9903 10.9803L19.9296 9.91967C19.4814 10.3679 18.9216 10.7372 18.3014 10.9357L18.7586 12.3643ZM21.0175 10.9517C22.0065 9.85281 22.71 8.48158 22.71 6.85H21.21C21.21 8.01842 20.7135 9.04719 19.9025 9.94828L21.0175 10.9517ZM22.71 6.85C22.71 5.03579 21.2742 3.6 19.46 3.6V5.1C20.4458 5.1 21.21 5.86421 21.21 6.85H22.71ZM19.46 3.6H18.81V5.1H19.46V3.6ZM18.1222 4.64904C18.2777 5.00678 18.36 5.4139 18.36 5.85H19.86C19.86 5.2261 19.7422 4.61322 19.4978 4.05096L18.1222 4.64904ZM18.36 5.85V8.85H19.86V5.85H18.36ZM18.36 8.85C18.36 9.74301 18.1728 10.5825 17.841 11.3536L19.2189 11.9464C19.6272 10.9975 19.86 9.95699 19.86 8.85H18.36Z" fill="white" fill-opacity="0.2"/>
<defs>
<linearGradient id="paint0_linear_0_24415" x1="2.03998" y1="2" x2="8.86119" y2="12.1003" gradientUnits="userSpaceOnUse">
<stop stop-color="white"/>
<stop offset="1" stop-color="white" stop-opacity="0"/>
</linearGradient>
</defs>
</svg>
